<svg width="150" height="150" viewBox="0 0 150 150" fill="none" xmlns="http://www.w3.org/2000/svg">
<path d="M30.0393 57.0422C21.4869 61.7439 19.3553 68.3975 19.4455 72.7234C15.5702 74.7962 9.82042 80.7803 17.8232 88.1342C25.826 95.4881 45.3103 94.9835 54.0521 93.8119C58.1076 97.5069 72.0584 103.924 95.418 100.03C118.777 96.137 128.402 82.3664 130.295 75.9678C141.11 75.9678 145.165 58.3941 134.621 51.3646C126.185 45.741 118.85 46.6783 116.236 47.8498C115.785 42.3524 112.451 31.1413 102.718 30.2761C92.9847 29.4109 86.7663 37.1253 84.8737 41.0907C80.3676 37.9364 68.9222 32.7094 59.1891 37.0352C49.4559 41.361 48.1489 50.6436 49.9513 57.0422C46.7971 54.6089 36.5297 53.474 30.0393 57.0422Z" fill="#3EAAFE"/>
<path d="M47.3191 61.9273C40.7327 65.5483 39.0911 70.6725 39.1605 74.004C36.176 75.6003 31.6084 79.4609 35.4802 86.8819C37.722 91.1786 49.2975 92.0809 56.0299 91.1786C59.1532 94.0243 79.1394 101.276 97.1294 98.2777C115.119 95.2793 123.072 81.4304 124.53 76.5026C132.858 76.5026 136.822 62.2182 128.701 56.8045C122.205 52.4736 115.715 53.9457 113.702 54.848C113.355 50.6142 110.787 41.9801 103.291 41.3138C95.7956 40.6475 91.1143 43.1021 89.6568 46.156C86.1865 43.7268 79.0005 41.8419 72.6565 44.6615C65.1607 47.9929 62.3012 54.3053 63.6894 59.2331C61.2602 57.3591 52.3177 59.1794 47.3191 61.9273Z" fill="#1090F3"/>
<path fill-rule="evenodd" clip-rule="evenodd" d="M20.7066 66.0744C19.7795 68.5208 19.6073 70.9676 19.732 72.4631L19.7434 72.6002L19.6332 72.6825C17.7448 74.0925 15.4199 76.5679 14.5431 79.4057C14.1066 80.8188 14.0304 82.3162 14.5387 83.8212C15.0473 85.3269 16.1486 86.8624 18.1053 88.3375C22.023 91.2909 28.4998 92.8531 35.0486 93.5939C41.5853 94.3333 48.1432 94.2494 52.1814 93.9446L52.2187 94.4393C48.1546 94.746 41.5652 94.8303 34.9928 94.0868C28.4326 93.3448 21.8385 91.773 17.8067 88.7337C15.7887 87.2124 14.6159 85.6 14.0687 83.98C13.5213 82.3593 13.6075 80.7535 14.0691 79.2593C14.9714 76.3386 17.3129 73.8245 19.2271 72.3673C19.1184 70.7974 19.3143 68.3482 20.2427 65.8986C21.1998 63.373 22.9414 60.833 25.9438 59.2693L26.173 59.7093C23.305 61.2031 21.6324 63.6315 20.7066 66.0744ZM106.482 95.7692C102.932 97.1177 97.8031 98.4721 90.7546 99.3302C76.6314 101.05 65.7197 96.7753 62.0034 94.401L62.2705 93.9829C65.8923 96.2968 76.6888 100.543 90.6946 98.8377C97.7107 97.9836 102.799 96.6373 106.306 95.3054C109.824 93.9694 111.726 92.6571 112.399 91.8884L112.772 92.2151C112.018 93.077 110.023 94.4247 106.482 95.7692Z" fill="#3C444C"/>
<path fill-rule="evenodd" clip-rule="evenodd" d="M77.0347 37.2504C73.8116 36.0921 65.4012 34.6174 57.65 38.0086C53.807 39.6899 51.6055 42.5898 50.412 45.541C49.2162 48.4979 49.0362 51.4984 49.2362 53.3479L48.7429 53.4013C48.5352 51.4799 48.7222 48.396 49.952 45.355C51.1841 42.3084 53.4669 39.2971 57.4511 37.5541C65.3544 34.0964 73.9029 35.5977 77.2025 36.7835L77.0347 37.2504ZM126.813 47.9882C122.563 47.2323 118.301 47.6493 115.681 48.2657L115.567 47.7827C118.241 47.1537 122.572 46.73 126.9 47.4998C131.229 48.2696 135.586 50.2403 138.251 54.4296C141.563 59.6337 141.621 64.7194 139.809 68.7229C138.027 72.6631 134.441 75.54 130.414 76.4401C129.896 79.449 127.243 86.119 120.424 90.2697L120.166 89.8459C126.965 85.707 129.523 79.0041 129.951 76.1961L129.977 76.0259L130.145 75.9906C134.083 75.1663 137.615 72.3701 139.357 68.5184C141.096 64.6757 141.06 59.7667 137.833 54.6959C135.268 50.6654 131.062 48.744 126.813 47.9882Z" fill="#3C444C"/>
<path fill-rule="evenodd" clip-rule="evenodd" d="M71.2599 56.2187C70.4828 58.5485 70.6666 61.0105 71.0759 62.5604L70.5963 62.6871C70.1681 61.0662 69.975 58.503 70.7892 56.0618C71.608 53.6071 73.444 51.2847 77.0451 50.1824L77.1903 50.6568C73.756 51.7081 72.0324 53.9025 71.2599 56.2187ZM116.979 73.437C119.145 73.1425 122.145 72.2811 124.292 70.6038C125.397 69.7407 126.287 68.6529 126.709 67.3054C127.133 65.9548 127.08 64.3701 126.344 62.5316L125.883 62.7158C126.584 64.4668 126.62 65.9331 126.236 67.1568C125.851 68.3836 125.036 69.3934 123.987 70.2129C121.882 71.8572 118.881 72.7002 116.75 72.9665L116.582 72.9875L116.541 73.1519C115.078 78.9452 106.459 90.6959 83.5803 90.5529L83.5772 91.0491C106.437 91.1919 115.334 79.5365 116.979 73.437ZM46.5035 68.3879C45.7724 70.103 45.8409 71.9667 46.1304 73.1539L45.6484 73.2714C45.3397 72.0059 45.2647 70.0288 46.0471 68.1934C46.836 66.3427 48.4879 64.6592 51.5806 63.9965L51.6845 64.4816C48.7469 65.1111 47.2281 66.6881 46.5035 68.3879Z" fill="white"/>
<path d="M89.695 67.1233L81.171 84.7863L88.7517 79.4677C93.9524 98.7022 90.8272 112.838 88.7517 119.791L107.479 111.142C109.669 92.798 104.498 80.7489 101.554 74.6513L107.479 73.4727L89.695 67.1233Z" fill="#FFC037"/>
<path fill-rule="evenodd" clip-rule="evenodd" d="M10.0108 52.4905C9.23281 54.6912 9.45637 56.8712 9.89814 58.1965L9.42748 58.3534C8.95608 56.9392 8.72305 54.6447 9.54308 52.3252C10.367 49.9947 12.247 47.6598 15.9629 46.1735L16.1471 46.6341C12.5576 48.0699 10.785 50.3009 10.0108 52.4905ZM21.3818 48.9228C15.7923 50.7259 14.0009 54.1604 13.7891 55.5722L13.2985 55.4986C13.5433 53.8666 15.4958 50.3002 21.2295 48.4506L21.3818 48.9228ZM125.348 100.953C131.952 99.3466 133.913 93.1393 134.063 90.2231L134.558 90.2485C134.403 93.268 132.377 99.7537 125.465 101.435L125.348 100.953ZM133.544 102.369C135.52 100.181 136.748 97.7008 137.27 96.0946L137.742 96.2482C137.2 97.9143 135.939 100.457 133.912 102.701C131.884 104.948 129.075 106.909 125.438 107.375L125.375 106.883C128.862 106.436 131.57 104.555 133.544 102.369Z" fill="black"/>
</svg>
