<svg width="150" height="150" viewBox="0 0 150 150" fill="none" xmlns="http://www.w3.org/2000/svg">
<path d="M117.33 59.6114L114.053 65.4916L119.86 69.0519L130.871 67.2104L130.651 63.8041L134.344 65.1709L142.122 64.1957L136.699 58.4412L139.883 52.7368L131.606 54.9545L126.455 59.5229L126.563 56.3059L117.33 59.6114Z" fill="#FFC037"/>
<path d="M93.2452 24.7067L94.6629 33.6669L100.122 32.9416L107.912 25.3238L106.358 23.6511L109.569 22.7908L117.574 15.9757L106.908 16.9902L105.728 8.45787L103.624 13.446L102.517 9.31814L98.0418 13.7127L96.8036 20.558L96.0662 17.806L93.2452 24.7067Z" fill="#FFC037"/>
<path d="M18.8157 83.5408C12.3466 59.3982 26.674 34.5825 50.8166 28.1135C74.9593 21.6445 99.7749 35.9718 106.244 60.1145L107.842 66.0794C114.311 90.222 99.9839 115.038 75.8413 121.507C51.6986 127.976 26.883 113.648 20.4139 89.5057L18.8157 83.5408Z" fill="#1090F3"/>
<path fill-rule="evenodd" clip-rule="evenodd" d="M48.1861 120.256C26.7649 112.577 19.2858 92.0301 18.2192 82.7114L18.8153 82.6432C19.8672 91.8333 27.262 112.117 48.3885 119.691L48.1861 120.256Z" fill="#3C444C"/>
<path d="M109.771 62.3662C116.681 88.156 103.364 114.132 80.0263 120.385C56.6885 126.639 32.1676 110.801 25.2572 85.0116C18.3468 59.2217 31.6639 33.2456 55.0016 26.9923C78.3394 20.7389 102.86 36.5764 109.771 62.3662Z" fill="#2EA4FF"/>
<path fill-rule="evenodd" clip-rule="evenodd" d="M79.6341 105.887C95.8067 101.554 105.423 83.3621 100.465 64.8594C95.5074 46.3567 78.0836 35.4105 61.9111 39.7439C45.7386 44.0773 36.1223 62.2689 41.0801 80.7716C46.0379 99.2743 63.4616 110.221 79.6341 105.887ZM80.2955 108.355C98.0573 103.596 108.193 83.8261 102.933 64.1981C97.674 44.57 79.0116 32.5165 61.2498 37.2758C43.4879 42.035 33.3526 61.8049 38.612 81.4329C43.8713 101.061 62.5336 113.114 80.2955 108.355Z" fill="white"/>
<path fill-rule="evenodd" clip-rule="evenodd" d="M77.4602 92.6145C87.1721 90.0122 93.1018 79.0117 90.057 67.6484C87.0122 56.2851 76.3767 49.7232 66.6648 52.3255C56.9529 54.9278 51.0232 65.9283 54.0679 77.2916C57.1127 88.6549 67.7483 95.2168 77.4602 92.6145ZM78.1215 95.0827C89.4227 92.0545 95.8714 79.4757 92.5251 66.9871C89.1788 54.4984 77.3047 46.8292 66.0034 49.8574C54.7022 52.8855 48.2535 65.4644 51.5998 77.953C54.9461 90.4416 66.8203 98.1108 78.1215 95.0827Z" fill="white"/>
<path d="M82.5822 69.6512C84.0653 75.186 81.2073 80.7607 76.1988 82.1027C71.1903 83.4447 65.9279 80.0458 64.4449 74.5111C62.9619 68.9764 65.8198 63.4017 70.8283 62.0597C75.8368 60.7177 81.0992 64.1165 82.5822 69.6512Z" fill="#FFC037"/>
<path fill-rule="evenodd" clip-rule="evenodd" d="M99.9154 25.0017C100.425 25.2957 100.599 25.9468 100.305 26.4561L74.5697 71.031C74.2757 71.5403 73.6246 71.7147 73.1154 71.4207C72.6061 71.1267 72.4317 70.4756 72.7257 69.9664L98.461 25.3914C98.755 24.8822 99.4062 24.7077 99.9154 25.0017Z" fill="#4C443C"/>
<path fill-rule="evenodd" clip-rule="evenodd" d="M122.496 62.8695C122.648 63.4375 122.311 64.0213 121.743 64.1734L72.0265 77.4951C71.4585 77.6472 70.8747 77.3102 70.7225 76.7422C70.5704 76.1743 70.9074 75.5905 71.4754 75.4383L121.192 62.1167C121.76 61.9645 122.344 62.3015 122.496 62.8695Z" fill="#4C443C"/>
<path fill-rule="evenodd" clip-rule="evenodd" d="M44.3619 12.147C26.7434 11.266 17.9447 23.7637 15.7512 30.1005C15.6743 30.3227 15.4317 30.4406 15.2095 30.3636C14.9872 30.2867 14.8694 30.0441 14.9463 29.8219C17.2197 23.2545 26.2883 10.3905 44.4044 11.2963C44.6393 11.308 44.8202 11.508 44.8085 11.7429C44.7968 11.9778 44.5968 12.1587 44.3619 12.147ZM44.3832 20.7089C34.7341 20.7089 27.4259 27.0571 24.9922 30.2208C24.8488 30.4073 24.5814 30.4421 24.395 30.2987C24.2086 30.1553 24.1737 29.888 24.3171 29.7015C26.8466 26.4132 34.3782 19.8572 44.3832 19.8572C44.6184 19.8572 44.809 20.0479 44.809 20.2831C44.809 20.5182 44.6184 20.7089 44.3832 20.7089ZM24.4567 123.015C24.665 122.906 24.9224 122.986 25.0317 123.194C27.5501 127.991 37.8053 137.627 58.5099 136.74C58.7449 136.73 58.9435 136.912 58.9536 137.147C58.9637 137.382 58.7814 137.581 58.5464 137.591C37.5606 138.49 26.9705 128.72 24.2776 123.59C24.1683 123.382 24.2485 123.125 24.4567 123.015ZM24.371 133.87C24.5465 133.713 24.8157 133.728 24.9723 133.904C28.0071 137.303 37.2914 143.951 49.9371 143.068C50.1717 143.052 50.3752 143.229 50.3915 143.464C50.4079 143.698 50.231 143.902 49.9963 143.918C37.0322 144.822 27.5062 138.02 24.337 134.471C24.1804 134.295 24.1956 134.026 24.371 133.87Z" fill="#3C444C"/>
<path fill-rule="evenodd" clip-rule="evenodd" d="M87.4363 117.222C102.473 109.608 108.727 94.6006 109.969 88.0673L110.559 88.1794C109.294 94.8326 102.96 110.033 87.7074 117.757L87.4363 117.222Z" fill="black"/>
</svg>
