<svg width="150" height="150" viewBox="0 0 150 150" fill="none" xmlns="http://www.w3.org/2000/svg">
<path d="M24.0072 45.6532L63.3519 29.8244L105.483 23.8218L116.399 64.5598C125.475 101.463 90.8398 119.913 90.8398 119.913C90.8398 119.913 46.7004 125.618 34.9228 86.3912L24.0072 45.6532Z" fill="#1090F3"/>
<path d="M35.9217 52.0451L66.0734 39.9148L98.3605 35.3147L106.726 66.5341C113.863 94.4904 86.7073 108.595 86.7073 108.595C86.7073 108.595 53.8837 114 44.2869 83.2645L35.9217 52.0451Z" fill="#229AF7"/>
<mask id="mask0" mask-type="alpha" maskUnits="userSpaceOnUse" x="34" y="31" width="82" height="87">
<path d="M35.9217 52.0451L66.0734 39.9148L98.3605 35.3147L106.726 66.5341C113.882 93.3589 87.1673 108.389 87.1673 108.389C87.1673 108.389 53.3544 113.961 44.2869 83.2645L35.9217 52.0451Z" fill="#2199F6"/>
</mask>
<g mask="url(#mask0)">
<path d="M34.5001 108.237L84.4337 21.7493L16.2231 40.0262L34.5001 108.237Z" fill="#41ABFD"/>
<path d="M63.0208 123.73L111.199 40.2836L128.833 106.096L63.0208 123.73Z" fill="#41ABFD"/>
<path d="M41.0748 122.413L101.894 17.0708L104.772 16.2996L107.343 25.8932L48.6304 127.586L42.8742 129.128L41.0748 122.413Z" fill="#41ABFD"/>
</g>
<path fill-rule="evenodd" clip-rule="evenodd" d="M62.8725 33.1663L28.4085 47.8454L28.1733 47.2934L62.6374 32.6143L62.8725 33.1663ZM48.2422 84.2224L69.7291 47.4181L70.2473 47.7206L48.7603 84.5249L48.2422 84.2224ZM69.7249 93.1649L90.999 54.2333L91.5255 54.521L70.2514 93.4526L69.7249 93.1649ZM100.206 85.8819C102.523 80.8029 103.409 75.6408 103.514 72.4502L104.114 72.47C104.006 75.7326 103.105 80.9735 100.752 86.1309C98.3988 91.2898 94.5818 96.3887 88.6292 99.3219L88.364 98.7836C94.1548 95.9302 97.8901 90.9594 100.206 85.8819Z" fill="white"/>
<path fill-rule="evenodd" clip-rule="evenodd" d="M99.5535 29.1166C106.009 29.1166 111.243 23.8832 111.243 17.4275C111.243 10.9718 106.009 5.7384 99.5535 5.7384C93.0978 5.7384 87.8644 10.9718 87.8644 17.4275C87.8644 23.8832 93.0978 29.1166 99.5535 29.1166ZM99.5534 24.3511C103.377 24.3511 106.477 21.2513 106.477 17.4275C106.477 13.6037 103.377 10.5038 99.5534 10.5038C95.7296 10.5038 92.6298 13.6037 92.6298 17.4275C92.6298 21.2513 95.7296 24.3511 99.5534 24.3511Z" fill="#D0D0D0"/>
<path d="M83.3162 17.4275L115.791 17.4275L115.791 40.9318L83.3162 40.9318L83.3162 17.4275Z" fill="#FFC037"/>
<path fill-rule="evenodd" clip-rule="evenodd" d="M101.373 29.8496C102.288 29.2541 102.892 28.2229 102.892 27.0505C102.892 25.2069 101.397 23.7123 99.5536 23.7123C97.7099 23.7123 96.2153 25.2069 96.2153 27.0505C96.2153 28.2229 96.8196 29.254 97.7337 29.8496L97.7337 32.8272C97.7337 33.8323 98.5485 34.6471 99.5536 34.6471C100.559 34.6471 101.373 33.8323 101.373 32.8272L101.373 29.8496Z" fill="#3C444C"/>
<path fill-rule="evenodd" clip-rule="evenodd" d="M58.0714 128.967C51.1932 128.854 45.7305 124.952 43.8369 122.995L44.4837 122.369C46.2647 124.21 51.5139 127.959 58.0863 128.068L58.0714 128.967ZM60.7388 139.006C47.246 138.098 38.6162 129.322 35.968 125.01L36.735 124.539C39.2713 128.669 47.6669 137.224 60.7993 138.108L60.7388 139.006Z" fill="#3C444C"/>
<path fill-rule="evenodd" clip-rule="evenodd" d="M117.11 76.9431C117.402 68.9714 115.629 61.8935 113.908 57.8249L114.461 57.5913C116.213 61.736 118.005 68.9009 117.71 76.965C117.414 85.0333 115.028 94.0179 108.403 101.773L107.947 101.384C114.464 93.7546 116.818 84.9106 117.11 76.9431Z" fill="#3C444C"/>
<path fill-rule="evenodd" clip-rule="evenodd" d="M31.076 73.2205L31.6531 73.0562L36.9508 91.6608C38.5035 96.3905 44.5576 107.281 56.3124 112.879L56.0544 113.42C44.1083 107.732 37.9648 96.6791 36.3789 91.8421L36.377 91.8365L31.076 73.2205Z" fill="#3C444C"/>
</svg>
