<svg width="136" height="32" viewBox="0 0 136 32" fill="none" xmlns="http://www.w3.org/2000/svg">
<path d="M59.1151 16.264C60.4831 15.544 61.3471 14.248 61.3471 12.568C61.3471 9.952 59.1871 8.2 54.9871 8.2H46.7791V25H55.4671C59.8831 25 62.1871 23.32 62.1871 20.416C62.1871 18.304 60.9871 16.864 59.1151 16.264ZM54.5071 11.128C56.4031 11.128 57.4351 11.776 57.4351 13.096C57.4351 14.416 56.4031 15.088 54.5071 15.088H50.6431V11.128H54.5071ZM55.1791 22.072H50.6431V17.92H55.1791C57.1951 17.92 58.2751 18.592 58.2751 20.008C58.2751 21.448 57.1951 22.072 55.1791 22.072ZM71.3707 25.192C75.4747 25.192 78.4507 22.432 78.4507 18.544C78.4507 14.656 75.4747 11.896 71.3707 11.896C67.2667 11.896 64.2667 14.656 64.2667 18.544C64.2667 22.432 67.2667 25.192 71.3707 25.192ZM71.3707 22.12C69.4987 22.12 68.0587 20.776 68.0587 18.544C68.0587 16.312 69.4987 14.968 71.3707 14.968C73.2427 14.968 74.6587 16.312 74.6587 18.544C74.6587 20.776 73.2427 22.12 71.3707 22.12ZM87.4572 25.192C91.5612 25.192 94.5372 22.432 94.5372 18.544C94.5372 14.656 91.5612 11.896 87.4572 11.896C83.3532 11.896 80.3532 14.656 80.3532 18.544C80.3532 22.432 83.3532 25.192 87.4572 25.192ZM87.4572 22.12C85.5852 22.12 84.1452 20.776 84.1452 18.544C84.1452 16.312 85.5852 14.968 87.4572 14.968C89.3292 14.968 90.7452 16.312 90.7452 18.544C90.7452 20.776 89.3292 22.12 87.4572 22.12ZM103.544 25.192C107.648 25.192 110.624 22.432 110.624 18.544C110.624 14.656 107.648 11.896 103.544 11.896C99.4398 11.896 96.4398 14.656 96.4398 18.544C96.4398 22.432 99.4398 25.192 103.544 25.192ZM103.544 22.12C101.672 22.12 100.232 20.776 100.232 18.544C100.232 16.312 101.672 14.968 103.544 14.968C105.416 14.968 106.832 16.312 106.832 18.544C106.832 20.776 105.416 22.12 103.544 22.12ZM117.83 25.192C121.694 25.192 123.926 23.488 123.926 21.088C123.926 16 116.126 18.136 116.126 15.928C116.126 15.256 116.846 14.728 118.526 14.728C119.702 14.728 120.974 14.968 122.246 15.688L123.494 13.024C122.27 12.304 120.302 11.896 118.526 11.896C114.758 11.896 112.55 13.624 112.55 16.072C112.55 21.232 120.35 19.072 120.35 21.184C120.35 21.904 119.702 22.36 117.974 22.36C116.39 22.36 114.638 21.856 113.486 21.112L112.238 23.8C113.438 24.592 115.646 25.192 117.83 25.192ZM133.916 21.736C133.508 22.048 132.956 22.216 132.404 22.216C131.396 22.216 130.796 21.616 130.796 20.512V15.256H134.012V12.376H130.796V9.232H127.052V12.376H125.06V15.256H127.052V20.56C127.052 23.632 128.828 25.192 131.876 25.192C133.028 25.192 134.156 24.928 134.924 24.376L133.916 21.736Z" fill="#3C444C"/>
<path d="M5.4734 4.68629C7.71104 2.44865 10.562 0.924796 13.6657 0.307434C16.7694 -0.309929 19.9864 0.00692636 22.9101 1.21793C25.8337 2.42894 28.3325 4.4797 30.0906 7.11089C31.8487 9.74208 32.7871 12.8355 32.7871 16C32.7871 19.1645 31.8487 22.258 30.0906 24.8891C28.3325 27.5203 25.8336 29.5711 22.91 30.7821C19.9864 31.9931 16.7693 32.3099 13.6656 31.6926C10.5619 31.0752 7.711 29.5513 5.47337 27.3137L12.4015 20.3855C13.2689 21.2529 14.374 21.8436 15.5771 22.0829C16.7802 22.3223 18.0273 22.1994 19.1605 21.73C20.2938 21.2606 21.2625 20.4657 21.944 19.4457C22.6255 18.4258 22.9892 17.2267 22.9892 16C22.9892 14.7733 22.6255 13.5742 21.944 12.5543C21.2625 11.5344 20.2939 10.7394 19.1606 10.27C18.0273 9.80056 16.7802 9.67774 15.5771 9.91705C14.374 10.1564 13.2689 10.7471 12.4015 11.6144L5.4734 4.68629Z" fill="#1090F3"/>
</svg>
