<svg width="744" height="534" viewBox="0 0 744 534" fill="none" xmlns="http://www.w3.org/2000/svg">
<path d="M630.316 34.2064H236.416V509.131H630.316V34.2064Z" fill="#F2F2F2"/>
<path d="M644.401 6.6001V31.0304C644.401 34.4099 641.679 37.138 638.32 37.138H228.425C225.066 37.138 222.331 34.4099 222.331 31.0304V6.6001C222.331 3.22057 225.066 0.492523 228.425 0.492523H638.32C641.679 0.492523 644.401 3.22057 644.401 6.6001Z" fill="#D8D8D8"/>
<path d="M644.401 18.8152V31.0304C644.401 34.4099 641.679 37.138 638.32 37.138H228.425C225.066 37.138 222.331 34.4099 222.331 31.0304V18.8152H644.401Z" fill="#B8B8B8"/>
<path d="M363.969 30.949H280.107V114.989H363.969V30.949Z" fill="#E6E6E6"/>
<path d="M584.308 32.2519H524.825V91.8619H584.308V32.2519Z" fill="#E6E6E6"/>
<path d="M330.977 25.0857H313.099V36.8122H330.977V25.0857Z" fill="#FFC037"/>
<path d="M561.189 28.1802H548.77V36.3236H561.189V28.1802Z" fill="#4D4D4D"/>
<path d="M403.963 180.788H301.235V315.766H403.963V180.788Z" fill="#E6E6E6"/>
<path d="M600.371 138.456H497.643V273.433H600.371V138.456Z" fill="#E6E6E6"/>
<path d="M339.916 175.902H322.038V185.674H339.916V175.902Z" fill="#FF7F91"/>
<path d="M583.726 136.054H572.106V142.623H583.726V136.054Z" fill="#FF7F91"/>
<path d="M379.449 177.988L367.052 176.085L365.528 186.053L377.925 187.956L379.449 177.988Z" fill="#4D4D4D"/>
<path d="M293.515 50.8461C293.245 50.8461 293.014 50.6289 293.014 50.3575C293.001 50.0725 293.217 49.8417 293.502 49.8281L353.716 47.1408C353.974 47.1137 354.231 47.3444 354.244 47.6294C354.258 47.9144 354.041 48.1452 353.757 48.1587L293.542 50.8461C293.529 50.8461 293.529 50.8461 293.515 50.8461Z" fill="white"/>
<path d="M313.099 57.8223C313.004 57.8223 312.937 57.7544 312.923 57.6594C312.923 57.5644 312.991 57.483 313.086 57.483L353.716 55.5286C353.797 55.5286 353.892 55.5964 353.892 55.6914C353.892 55.7864 353.824 55.8679 353.73 55.8679L313.099 57.8223Z" fill="white"/>
<path d="M347.473 73.132L300.098 71.259C300.003 71.259 299.935 71.1776 299.935 71.0826C299.935 70.9876 300.03 70.9197 300.111 70.9197L347.486 72.7927C347.581 72.7927 347.649 72.8741 347.649 72.9691C347.635 73.0641 347.568 73.132 347.473 73.132Z" fill="white"/>
<path d="M355.193 95.8657H293.515C293.326 95.8657 293.177 95.7165 293.177 95.5264C293.177 95.3364 293.326 95.1871 293.515 95.1871H355.193C355.382 95.1871 355.531 95.3364 355.531 95.5264C355.531 95.7165 355.382 95.8657 355.193 95.8657Z" fill="white"/>
<path d="M569.397 48.0502H533.317C533.222 48.0502 533.141 47.9687 533.141 47.8737C533.141 47.7787 533.222 47.6973 533.317 47.6973H569.397C569.492 47.6973 569.573 47.7787 569.573 47.8737C569.573 47.9687 569.492 48.0502 569.397 48.0502Z" fill="white"/>
<path d="M561.176 54.0085H534.129C533.845 54.0085 533.615 53.7777 533.615 53.4927C533.615 53.2077 533.845 52.977 534.129 52.977H561.176C561.46 52.977 561.691 53.2077 561.691 53.4927C561.691 53.7777 561.46 54.0085 561.176 54.0085Z" fill="white"/>
<path d="M542.567 67.7709C539.506 67.7709 537.123 67.7573 536.906 67.7166C536.811 67.703 536.757 67.608 536.77 67.513C536.784 67.418 536.879 67.3637 536.974 67.3772C537.488 67.4723 551.641 67.4044 557.045 67.3772C557.14 67.3772 557.221 67.4587 557.221 67.5401C557.221 67.6351 557.14 67.7166 557.059 67.7166C556.531 67.7301 548.337 67.7709 542.567 67.7709Z" fill="white"/>
<path d="M570.819 76.2401H535.47C535.186 76.2401 534.956 76.0094 534.956 75.7243C534.956 75.4393 535.186 75.2086 535.47 75.2086H570.819C571.103 75.2086 571.334 75.4393 571.334 75.7243C571.334 76.0094 571.103 76.2401 570.819 76.2401Z" fill="white"/>
<path d="M393.548 204.933H313.587C313.492 204.933 313.411 204.852 313.411 204.757C313.411 204.662 313.492 204.581 313.587 204.581H393.548C393.643 204.581 393.724 204.662 393.724 204.757C393.724 204.852 393.643 204.933 393.548 204.933Z" fill="white"/>
<path d="M365.106 216.619H314.399C314.305 216.619 314.223 216.538 314.223 216.443C314.223 216.348 314.305 216.266 314.399 216.266H365.106C365.201 216.266 365.282 216.348 365.282 216.443C365.282 216.538 365.201 216.619 365.106 216.619Z" fill="white"/>
<path d="M352.592 232.594L314.386 230.802C314.291 230.802 314.223 230.721 314.223 230.626C314.223 230.531 314.318 230.463 314.399 230.463L352.592 232.255C352.687 232.255 352.755 232.336 352.755 232.431C352.768 232.513 352.687 232.594 352.592 232.594Z" fill="white"/>
<path d="M370.795 248.284H314.399V291.213H370.795V248.284Z" fill="#F2F2F2"/>
<path d="M277.426 347.009C277.25 347.009 277.101 346.873 277.087 346.697C277.073 346.507 277.222 346.344 277.399 346.33L346.877 341.662C347.066 341.621 347.229 341.784 347.243 341.974C347.256 342.164 347.107 342.327 346.931 342.34L277.453 347.009C277.439 347.009 277.439 347.009 277.426 347.009Z" fill="#E6E6E6"/>
<path d="M333.496 361.26H277.426C277.236 361.26 277.087 361.111 277.087 360.921C277.087 360.731 277.236 360.582 277.426 360.582H333.496C333.685 360.582 333.834 360.731 333.834 360.921C333.834 361.111 333.685 361.26 333.496 361.26Z" fill="#E6E6E6"/>
<path d="M344.141 375.688C344.127 375.688 344.127 375.688 344.114 375.688L279.755 373.15C279.471 373.136 279.254 372.905 279.267 372.62C279.281 372.335 279.552 372.132 279.796 372.132L344.154 374.67C344.439 374.683 344.656 374.914 344.642 375.199C344.642 375.47 344.412 375.688 344.141 375.688Z" fill="#E6E6E6"/>
<path d="M311.962 391.554C311.948 391.554 311.934 391.554 311.921 391.554L279.741 388.174C279.552 388.161 279.416 387.984 279.444 387.794C279.457 387.604 279.633 387.469 279.809 387.496L311.989 390.875C312.178 390.889 312.314 391.065 312.287 391.255C312.287 391.432 312.138 391.554 311.962 391.554Z" fill="#E6E6E6"/>
<path d="M490.492 6.87154H393.71C393.426 6.87154 393.196 6.64081 393.196 6.35579C393.196 6.07077 393.426 5.84004 393.71 5.84004H490.492C490.777 5.84004 491.007 6.07077 491.007 6.35579C491.007 6.64081 490.777 6.87154 490.492 6.87154Z" fill="white"/>
<path d="M313.099 10.5225H243.296C243.011 10.5225 242.781 10.2918 242.781 10.0067C242.781 9.72173 243.011 9.491 243.296 9.491H313.099C313.384 9.491 313.614 9.72173 313.614 10.0067C313.614 10.2918 313.384 10.5225 313.099 10.5225Z" fill="white"/>
<path d="M630.329 11.9884H553.145C552.86 11.9884 552.63 11.7576 552.63 11.4726C552.63 11.1876 552.86 10.9568 553.145 10.9568H630.329C630.614 10.9568 630.844 11.1876 630.844 11.4726C630.844 11.7576 630.6 11.9884 630.329 11.9884Z" fill="white"/>
<path d="M314.589 145.296C284.251 145.296 257.395 139.99 256.934 139.895C256.663 139.84 256.487 139.569 256.541 139.297C256.596 139.026 256.866 138.85 257.137 138.904C257.963 139.067 339.631 155.218 378.826 130.842C379.07 130.693 379.381 130.774 379.53 131.005C379.679 131.249 379.598 131.561 379.368 131.71C362.343 142.283 337.477 145.296 314.589 145.296Z" fill="#E6E6E6"/>
<path d="M295.601 162.601C276.247 162.601 263.3 154.498 263.137 154.403C262.907 154.254 262.826 153.942 262.988 153.698C263.137 153.467 263.449 153.385 263.692 153.548C263.868 153.657 281.908 164.936 307.208 160.606C307.479 160.565 307.749 160.742 307.79 161.027C307.831 161.312 307.655 161.57 307.37 161.61C303.253 162.316 299.312 162.601 295.601 162.601Z" fill="#E6E6E6"/>
<path d="M683.813 255.504C683.799 255.504 683.799 255.504 683.786 255.504C683.501 255.491 683.285 255.246 683.312 254.961C684.734 230.178 661.452 221.641 661.222 221.546C660.951 221.451 660.816 221.166 660.911 220.895C661.005 220.623 661.29 220.487 661.561 220.582C661.805 220.664 685.79 229.459 684.327 255.016C684.3 255.287 684.084 255.504 683.813 255.504Z" fill="white"/>
<path d="M690.151 233.571C689.961 233.571 689.772 233.463 689.69 233.273C680.901 214 661.561 213.294 661.371 213.294C661.087 213.294 660.87 213.05 660.87 212.778C660.883 212.493 661.114 212.29 661.385 212.276C661.588 212.276 681.551 212.995 690.598 232.852C690.72 233.11 690.598 233.408 690.354 233.53C690.3 233.558 690.219 233.571 690.151 233.571Z" fill="white"/>
<path d="M742.74 511.819H1.25955C0.568828 511.819 0 511.208 0 510.462C0 509.715 0.568828 509.105 1.25955 509.105H742.74C743.431 509.105 744 509.715 744 510.462C744 511.208 743.431 511.819 742.74 511.819Z" fill="white"/>
<mask id="path-37-inside-1" fill="white">
<path fill-rule="evenodd" clip-rule="evenodd" d="M603.459 57.2929H744V134.438H666.484L639.931 158.624L647.676 134.438H603.459V57.2929Z"/>
</mask>
<path fill-rule="evenodd" clip-rule="evenodd" d="M603.459 57.2929H744V134.438H666.484L639.931 158.624L647.676 134.438H603.459V57.2929Z" fill="white" fill-opacity="0.3"/>
<path d="M744 57.2929H745.5V55.7929H744V57.2929ZM603.459 57.2929V55.7929H601.959V57.2929H603.459ZM744 134.438V135.938H745.5V134.438H744ZM666.484 134.438V132.938H665.903L665.473 133.33L666.484 134.438ZM639.931 158.624L638.503 158.167L636.791 163.514L640.941 159.733L639.931 158.624ZM647.676 134.438L649.104 134.896L649.731 132.938H647.676V134.438ZM603.459 134.438H601.959V135.938H603.459V134.438ZM744 55.7929H603.459V58.7929H744V55.7929ZM745.5 134.438V57.2929H742.5V134.438H745.5ZM666.484 135.938H744V132.938H666.484V135.938ZM640.941 159.733L667.494 135.547L665.473 133.33L638.921 157.516L640.941 159.733ZM646.247 133.981L638.503 158.167L641.36 159.082L649.104 134.896L646.247 133.981ZM603.459 135.938H647.676V132.938H603.459V135.938ZM601.959 57.2929V134.438H604.959V57.2929H601.959Z" fill="white" mask="url(#path-37-inside-1)"/>
<mask id="path-39-inside-2" fill="white">
<path fill-rule="evenodd" clip-rule="evenodd" d="M126.171 81.3161H324.719V158.462H270.094L277.087 181.996L255.096 158.462H126.171V81.3161Z"/>
</mask>
<path fill-rule="evenodd" clip-rule="evenodd" d="M126.171 81.3161H324.719V158.462H270.094L277.087 181.996L255.096 158.462H126.171V81.3161Z" fill="white" fill-opacity="0.3"/>
<path d="M324.719 81.3161H326.219V79.8161H324.719V81.3161ZM126.171 81.3161V79.8161H124.671V81.3161H126.171ZM324.719 158.462V159.962H326.219V158.462H324.719ZM270.094 158.462V156.962H268.084L268.656 158.889L270.094 158.462ZM277.087 181.996L275.991 183.02L278.525 181.569L277.087 181.996ZM255.096 158.462L256.192 157.437L255.748 156.962H255.096V158.462ZM126.171 158.462H124.671V159.962H126.171V158.462ZM324.719 79.8161H126.171V82.8161H324.719V79.8161ZM326.219 158.462V81.3161H323.219V158.462H326.219ZM270.094 159.962H324.719V156.962H270.094V159.962ZM278.525 181.569L271.532 158.034L268.656 158.889L275.649 182.423L278.525 181.569ZM254 159.486L275.991 183.02L278.183 180.972L256.192 157.437L254 159.486ZM126.171 159.962H255.096V156.962H126.171V159.962ZM124.671 81.3161V158.462H127.671V81.3161H124.671Z" fill="white" mask="url(#path-39-inside-2)"/>
<path d="M726.15 73.8242H714.448L718.538 78.3438L697.654 98.5395L686.386 91.414C685.858 91.0747 685.153 91.1561 684.706 91.604L665.732 110.619L655.615 99.3538C655.154 98.8516 654.396 98.7566 653.841 99.1502L626.483 118.002C625.86 118.423 625.711 119.278 626.131 119.889C626.388 120.269 626.821 120.472 627.255 120.472C627.526 120.472 627.783 120.391 628.027 120.228L654.41 102.055L664.689 113.496C664.933 113.768 665.285 113.931 665.664 113.944C666.03 113.971 666.396 113.808 666.653 113.551L685.871 94.2913L697.112 101.417C697.64 101.756 698.331 101.675 698.778 101.24L720.367 80.366L725.296 85.8086L726.15 73.8242Z" fill="white"/>
<path d="M280.283 99.3945H152.798V102.109H280.283V99.3945Z" fill="white"/>
<path d="M222.331 109.71H152.798V112.424H222.331V109.71Z" fill="white"/>
<path d="M249.716 129.227H152.798V131.941H249.716V129.227Z" fill="white"/>
<path d="M487.161 228.02C525.922 215.886 552.82 222.157 579.148 228.02C605.477 233.883 637.656 236.815 637.656 236.815C637.656 236.815 651.877 232.092 661.994 243.452C672.111 254.812 673.736 289.259 673.736 289.259C673.736 289.259 694.214 335.513 700.39 372.647C706.566 409.782 698.765 478.512 682.187 490.564C665.61 502.617 644.807 497.405 644.807 497.405L646.758 509.131H444.58C444.58 509.131 439.379 452.779 428.003 428.023C428.003 428.023 395.661 472.975 388.835 482.747C382.009 492.519 362.669 510.434 362.669 510.434C362.669 510.434 335.69 524.441 323.013 507.177C310.336 489.913 306.436 445.341 337.315 429.679C337.315 429.679 348.367 389.586 378.596 346.914C378.596 346.914 373.395 321.181 384.447 303.591C395.498 286.001 398.423 288.933 411.75 277.858C425.077 266.783 445.555 241.05 487.161 228.02Z" fill="#1A1A1A"/>
<path d="M548.269 203.753C549.975 227.084 533.764 225.862 533.764 225.862C533.628 229.88 532.152 244.47 530.039 263.729C524.175 317.137 513.489 406.524 513.489 406.524C499.418 378.267 481.107 320.679 473.807 296.927C471.762 290.317 470.583 286.327 470.583 286.327C465.938 284.712 461.469 282.459 457.257 279.69C441.695 269.511 429.587 252.233 425.24 233.218C425.064 232.472 424.901 231.712 424.752 230.952C424.4 229.147 424.075 227.26 423.763 225.306C419.782 200.21 419.226 165.153 419.226 165.153C422.802 121.504 465.775 104.701 514.139 120.201C553.795 132.905 548.269 203.753 548.269 203.753Z" fill="white"/>
<path d="M530.039 263.729C527.642 285.635 524.419 313.594 521.466 338.961C517.2 375.43 513.489 406.524 513.489 406.524C507.341 394.173 500.379 376.217 493.878 357.922C485.522 334.373 477.91 310.296 473.807 296.927C473.021 294.376 472.358 292.204 471.843 290.521C471.721 290.1 471.599 289.72 471.491 289.354C471.382 289.001 471.288 288.675 471.193 288.377C471.112 288.078 471.03 287.82 470.963 287.589C470.705 286.761 470.583 286.327 470.583 286.327C470.583 286.327 482.231 289.842 487.933 292.258C488.962 292.679 489.788 293.073 490.33 293.412C491.183 293.941 491.914 294.511 492.497 295C493.269 295.665 493.743 296.181 493.743 296.181L508.045 292.028C508.045 292.028 508.261 291.376 508.695 290.277C509.535 288.146 511.187 284.332 513.652 280.464C516.266 276.351 525.028 268.222 530.039 263.729Z" fill="#1090F3"/>
<path d="M521.214 338.961C516.948 375.43 513.237 406.524 513.237 406.524C507.089 394.173 500.127 376.217 493.626 357.922L500.357 324.438C500.357 324.438 490.484 313.282 488.29 308.64C488.29 308.64 487.843 300.375 489.942 295.909C489.942 295.909 490.823 295.556 492.245 295C495.888 293.643 503.107 291.077 508.443 290.277C509.201 290.155 509.933 290.087 510.596 290.046L517.422 297.199C517.422 297.199 515.716 314.666 515.106 319.552L521.214 338.961Z" fill="#1A1A1A"/>
<path d="M548.269 203.753C548.269 203.753 559.971 184.86 557.695 162.058C555.42 139.257 545.669 137.302 545.669 137.302C545.669 137.302 543.15 109.696 515.358 102.611C487.567 95.5264 472.94 110.918 472.94 110.918C472.94 110.918 451 103.344 439.054 117.269C439.054 117.269 420.527 107.986 409.556 120.69C398.586 133.393 407.606 145.853 407.606 145.853C407.606 145.853 396.636 152.938 399.561 168.329C402.487 183.72 419.687 179.159 419.687 179.159C419.687 179.159 421.177 177.368 420.77 171.668C420.77 171.668 448.155 178.671 460.182 168.41C460.182 168.41 487.811 181.277 503.413 170.527C503.413 170.527 508.736 202.3 528.523 205.951C528.523 205.951 527.886 193.682 535.349 191.293C542.784 188.918 548.147 196.79 548.269 203.753Z" fill="#1A1A1A"/>
<path d="M393.223 477.372C392.938 476.544 384.446 415.495 385.178 401.122C385.178 401.122 432.228 440.401 467.333 453.756C502.438 467.111 532.667 477.372 532.667 477.372C532.667 477.372 531.367 497.405 532.667 506.526C532.667 506.526 551.844 520.858 557.37 522.487C557.37 522.487 545.709 538.448 526.829 530.956C507.963 523.464 466.195 506.933 447.343 500.092C428.49 493.252 395.986 485.353 393.223 477.372Z" fill="#F2F2F2"/>
<path d="M360.799 453.919C357.698 445.042 352.755 439.016 339.59 441.215C326.426 443.414 324.719 459.294 324.719 476.639C324.719 493.985 326.914 506.688 340.322 510.109C353.73 513.529 361.287 495.206 362.018 486.655C362.75 478.105 364.212 463.691 360.799 453.919Z" fill="#1090F3"/>
<path d="M404.518 456.362C402.487 452.046 395.417 450.01 389.566 447.078C383.715 444.147 373.734 434.89 366.244 435.922C355.843 437.347 351.901 448.056 351.901 448.056C351.901 448.056 340.444 448.422 335.446 456.851C330.449 465.279 329.961 474.929 332.399 489.465C334.837 504.001 348.976 507.177 348.976 507.177C352.511 510.597 368.682 515.158 381.115 512.864C393.548 510.584 390.216 499.115 390.216 499.115C396.636 499.115 397.123 486.574 397.123 486.574C400.211 486.248 401.024 481.525 401.43 475.743C401.836 469.962 399.399 467.6 399.399 467.6C402.324 467.03 406.55 460.678 404.518 456.362ZM375.427 463.202C375.427 463.202 376.036 462.225 376.158 457.95L385.178 463.202H375.427Z" fill="white"/>
<path d="M549.61 391.499C553.511 392.599 571.185 399.439 571.185 399.439C571.185 399.439 570.535 423.951 566.147 441.378C561.759 458.805 556.558 467.926 556.558 467.926C556.558 467.926 532.667 464.994 528.604 461.411C524.541 457.828 528.116 431.606 532.83 416.622C537.543 401.638 545.709 390.4 549.61 391.499Z" fill="#1090F3"/>
<path d="M555.095 396.752C555.095 396.752 497.075 370.367 484.235 364.178C471.396 357.989 454.494 355.383 443.605 357.175C432.716 358.967 407.2 362.618 404.274 367.721C401.349 372.824 404.112 378.511 405.737 379.977C407.362 381.442 431.091 376.163 442.305 376.692C453.519 377.221 457.582 380.302 457.582 380.302V383.56C457.582 383.56 421.827 385.772 416.464 391.432C411.1 397.091 415.488 410.596 418.576 411.085C421.664 411.573 431.416 411.085 431.416 411.085C431.416 411.085 431.578 420.205 436.129 423.625C440.679 427.046 446.368 425.417 446.368 425.417C446.368 425.417 446.368 434.538 455.794 437.144C465.22 439.749 491.549 434.701 499.675 434.701C507.801 434.701 540.793 445.613 540.793 445.613C540.793 445.613 548.757 429.977 555.095 396.752Z" fill="white"/>
<path d="M638.306 401.624C638.266 401.624 638.225 401.624 638.185 401.611C606.154 393.712 569.045 398.896 568.666 398.951C568.395 398.991 568.137 398.801 568.097 398.516C568.056 398.245 568.246 397.987 568.53 397.946C568.896 397.892 606.208 392.68 638.428 400.634C638.699 400.702 638.862 400.973 638.794 401.244C638.74 401.475 638.537 401.624 638.306 401.624Z" fill="white"/>
<path d="M610.353 391.934C610.122 391.934 609.906 391.771 609.851 391.527C609.675 390.699 592.624 308.789 624.221 260.255C624.37 260.024 624.695 259.956 624.925 260.105C625.156 260.255 625.223 260.58 625.074 260.811C593.708 308.993 610.664 390.495 610.84 391.323C610.894 391.595 610.732 391.866 610.447 391.934C610.42 391.934 610.393 391.934 610.353 391.934Z" fill="white"/>
<path d="M439.054 354.257C438.932 354.257 438.81 354.216 438.716 354.135C438.526 353.972 419.7 337.02 421.312 307.798C421.326 307.513 421.583 307.283 421.84 307.323C422.125 307.337 422.341 307.581 422.314 307.853C420.716 336.586 439.19 353.212 439.366 353.375C439.582 353.565 439.596 353.877 439.406 354.094C439.339 354.202 439.19 354.257 439.054 354.257Z" fill="white"/>
<path d="M424.102 354.257C423.98 354.257 423.845 354.203 423.75 354.108C423.641 354.013 413.524 344.037 411.249 329.066C411.209 328.781 411.398 328.524 411.669 328.483C411.953 328.442 412.211 328.632 412.251 328.904C414.473 343.535 424.359 353.28 424.454 353.375C424.657 353.565 424.657 353.89 424.468 354.094C424.359 354.216 424.237 354.257 424.102 354.257Z" fill="white"/>
<path d="M636.681 495.627C636.668 495.627 636.641 495.627 636.627 495.627C624.519 494.243 560.702 477.861 557.749 475.961C554.499 473.87 554.58 469.704 554.594 469.527C554.607 469.256 554.824 469.039 555.108 469.039H555.122C555.406 469.052 555.623 469.283 555.61 469.568C555.61 469.609 555.542 473.341 558.305 475.105C561.081 476.883 625.345 493.306 636.749 494.609C637.033 494.636 637.223 494.894 637.196 495.179C637.155 495.437 636.939 495.627 636.681 495.627Z" fill="white"/>
<path d="M627.58 367.626C627.566 367.626 627.539 367.626 627.526 367.626C627.241 367.599 627.052 367.341 627.079 367.069C631.277 328.904 662.658 295.448 662.969 295.108C663.159 294.905 663.484 294.891 663.687 295.095C663.89 295.285 663.904 295.611 663.701 295.814C663.389 296.14 632.239 329.365 628.081 367.178C628.054 367.422 627.837 367.626 627.58 367.626Z" fill="white"/>
<path d="M630.83 386.518C630.722 386.518 630.627 386.491 630.532 386.423C630.302 386.261 630.248 385.935 630.411 385.718C643.616 367.313 666.342 346.751 666.558 346.548C666.761 346.358 667.086 346.371 667.276 346.588C667.466 346.792 667.452 347.118 667.235 347.308C667.005 347.511 644.374 368.006 631.223 386.315C631.142 386.437 630.993 386.518 630.83 386.518Z" fill="white"/>
<path d="M385.137 438.623C384.961 438.623 384.785 438.528 384.691 438.351C375.44 421.345 360.177 405.398 360.028 405.235C359.838 405.031 359.838 404.705 360.041 404.515C360.244 404.325 360.57 404.325 360.759 404.529C360.908 404.692 376.266 420.734 385.584 437.863C385.72 438.107 385.625 438.419 385.381 438.555C385.3 438.609 385.219 438.623 385.137 438.623Z" fill="white"/>
<path d="M543.393 388.134C543.299 388.134 543.204 388.106 543.109 388.052C542.879 387.903 542.811 387.577 542.96 387.346C543.217 386.953 569.086 347.729 564.697 338.336C560.242 328.768 549.962 319.05 549.854 318.942C549.732 318.833 549.678 318.656 549.705 318.494C549.732 318.331 549.84 318.181 549.989 318.114C550.179 318.019 569.424 309.034 567.257 298.814C565.009 288.2 548.188 226.5 548.025 225.876C547.958 225.604 548.107 225.319 548.377 225.251C548.648 225.17 548.933 225.333 549 225.604C549.177 226.228 565.998 287.956 568.246 298.596C570.359 308.599 554.608 316.974 551.073 318.711C553.267 320.869 561.664 329.419 565.605 337.902C570.223 347.824 544.87 386.274 543.786 387.903C543.718 388.066 543.556 388.134 543.393 388.134Z" fill="white"/>
<path d="M466.845 354.257C466.683 354.257 466.52 354.175 466.425 354.026C466.182 353.646 460.277 344.634 458.814 339.979C457.527 335.921 462.349 329.162 464.123 326.854C460.805 326.637 450.498 325.307 450.498 317.354C450.498 308.382 454.358 281.4 454.399 281.129C454.439 280.844 454.683 280.654 454.968 280.695C455.252 280.735 455.442 280.993 455.401 281.265C455.36 281.536 451.5 308.45 451.5 317.354C451.5 325.782 464.99 325.891 465.139 325.891C465.342 325.891 465.518 325.999 465.599 326.189C465.68 326.379 465.653 326.583 465.532 326.732C465.464 326.814 458.408 335.364 459.776 339.694C461.198 344.213 467.211 353.402 467.279 353.497C467.428 353.728 467.373 354.053 467.13 354.203C467.035 354.243 466.94 354.257 466.845 354.257Z" fill="white"/>
<path d="M517.796 455.643C517.566 455.643 517.376 455.493 517.309 455.276L513.164 440.903C513.083 440.632 513.246 440.347 513.516 440.279C513.787 440.197 514.072 440.36 514.139 440.632L517.295 451.557V442.206C517.295 441.921 517.525 441.69 517.81 441.69C518.094 441.69 518.324 441.921 518.324 442.206V455.154C518.324 455.412 518.135 455.616 517.891 455.656C517.85 455.643 517.823 455.643 517.796 455.643Z" fill="white"/>
<path d="M504.876 325.416C502.993 325.416 501.585 325.131 501.436 325.103C501.165 325.049 500.989 324.778 501.043 324.506C501.097 324.235 501.354 324.058 501.639 324.113C501.72 324.126 510.347 325.836 513.53 320.448C513.679 320.204 513.99 320.122 514.221 320.272C514.464 320.421 514.546 320.733 514.397 320.964C512.216 324.669 507.923 325.416 504.876 325.416Z" fill="white"/>
<path d="M517.065 378.687C517.051 378.687 517.024 378.687 517.011 378.687C516.726 378.66 516.537 378.402 516.564 378.117L529.538 268.181C529.565 267.896 529.836 267.692 530.107 267.733C530.392 267.76 530.581 268.018 530.554 268.303L517.579 378.239C517.539 378.497 517.322 378.687 517.065 378.687Z" fill="white"/>
<path d="M496.926 366.866C496.709 366.866 496.519 366.73 496.438 366.513L471.22 290.195C471.139 289.924 471.274 289.639 471.545 289.557C471.802 289.476 472.1 289.612 472.182 289.883L497.4 366.201C497.481 366.472 497.345 366.757 497.075 366.838C497.034 366.866 496.98 366.866 496.926 366.866Z" fill="white"/>
<path d="M342.285 511.208C337.843 511.208 331.302 509.471 327.658 500.296C321.523 484.864 323.528 460.963 327.658 450.607C332.29 439.016 344.669 439.329 350.574 441.134C350.845 441.215 350.994 441.5 350.913 441.772C350.831 442.043 350.547 442.206 350.276 442.111C344.683 440.414 332.954 440.089 328.607 451.001C324.638 460.949 322.661 484.959 328.607 499.929C334.105 513.76 346.105 509.783 346.606 509.606C346.877 509.511 347.161 509.661 347.256 509.919C347.351 510.19 347.202 510.475 346.944 510.57C346.89 510.57 344.967 511.208 342.285 511.208Z" fill="white"/>
<path d="M558.386 464.723C558.305 464.723 558.224 464.709 558.156 464.668C557.899 464.546 557.804 464.234 557.926 463.99C558.034 463.786 568.219 443.305 569.83 413.324C569.844 413.039 570.088 412.808 570.359 412.849C570.643 412.862 570.86 413.107 570.833 413.378C569.207 443.577 558.914 464.234 558.819 464.451C558.752 464.627 558.576 464.723 558.386 464.723Z" fill="white"/>
<path d="M531.069 460.081C530.96 460.081 530.838 460.067 530.73 460.054C529.24 459.782 528.36 457.882 528.021 454.231C527.994 453.946 528.197 453.702 528.482 453.675C528.78 453.647 529.01 453.851 529.037 454.136C529.416 458.181 530.378 458.941 530.92 459.049C533.073 459.429 537.312 452.616 539.438 448.218C539.56 447.961 539.872 447.852 540.116 447.988C540.373 448.11 540.468 448.408 540.346 448.666C539.777 449.874 534.712 460.081 531.069 460.081Z" fill="white"/>
<path d="M672.842 454.53C672.571 454.53 672.355 454.313 672.341 454.041C671.149 431.647 654.626 415.36 654.45 415.197C654.247 415.007 654.247 414.681 654.437 414.478C654.626 414.274 654.951 414.274 655.154 414.464C655.331 414.627 672.138 431.185 673.343 453.987C673.357 454.272 673.14 454.503 672.869 454.516C672.856 454.53 672.856 454.53 672.842 454.53Z" fill="white"/>
<path d="M534.861 137.085C534.834 137.085 534.807 137.085 534.766 137.071C534.495 137.017 534.306 136.759 534.36 136.488C534.495 135.714 537.394 117.392 514.532 113.13C514.261 113.075 514.072 112.818 514.126 112.533C514.18 112.261 514.437 112.071 514.722 112.125C538.585 116.564 535.403 136.461 535.362 136.651C535.321 136.909 535.105 137.085 534.861 137.085Z" fill="white"/>
<path d="M439.907 167.949C434.625 167.949 428.124 166.361 420.73 161.42C420.499 161.271 420.432 160.945 420.594 160.715C420.757 160.484 421.068 160.416 421.298 160.579C441.221 173.88 454.182 162.208 454.318 162.099C454.521 161.909 454.846 161.923 455.035 162.126C455.225 162.33 455.211 162.655 455.008 162.846C454.914 162.913 449.32 167.949 439.907 167.949Z" fill="white"/>
<path d="M552.657 169.822C552.63 169.822 552.617 169.822 552.589 169.822C552.305 169.781 552.115 169.523 552.156 169.252C554.039 155.354 541.077 147.848 540.956 147.78C540.712 147.644 540.63 147.332 540.766 147.088C540.901 146.844 541.213 146.762 541.457 146.898C541.592 146.979 555.136 154.811 553.172 169.401C553.131 169.632 552.914 169.822 552.657 169.822Z" fill="white"/>
<path d="M415.651 169.74C415.556 169.74 415.475 169.713 415.393 169.672C415.109 169.509 408.432 165.492 405.791 161.285C405.642 161.04 405.71 160.728 405.954 160.579C406.184 160.43 406.509 160.497 406.658 160.742C409.163 164.746 415.854 168.763 415.908 168.804C416.152 168.953 416.233 169.265 416.084 169.496C415.989 169.645 415.827 169.74 415.651 169.74Z" fill="white"/>
<path d="M522.55 304.921C522.36 304.921 522.184 304.813 522.103 304.636C518.053 296.533 511.593 291.539 511.539 291.485C511.322 291.308 511.268 290.996 511.444 290.765C511.607 290.534 511.932 290.494 512.162 290.67C512.23 290.724 518.88 295.855 523.024 304.175C523.146 304.433 523.051 304.731 522.794 304.853C522.699 304.894 522.631 304.921 522.55 304.921Z" fill="white"/>
<path d="M486.998 325.402C486.727 325.402 486.497 325.185 486.484 324.9C486.321 316.933 488.976 297.864 489.016 297.674C489.057 297.402 489.301 297.199 489.585 297.239C489.869 297.28 490.059 297.538 490.018 297.809C489.991 297.999 487.337 316.987 487.499 324.873C487.513 325.158 487.283 325.388 486.998 325.402Z" fill="white"/>
<path d="M434.544 228.482C434.544 231.725 431.93 234.345 428.693 234.345C427.718 234.345 426.811 234.101 425.998 233.68C425.334 230.748 424.725 227.749 424.183 224.722C425.267 223.433 426.878 222.618 428.693 222.618C431.93 222.618 434.544 225.238 434.544 228.482Z" fill="#ED1C24"/>
<path d="M433.339 255.789C433.163 255.789 432.987 255.694 432.892 255.518C430.102 250.292 427.61 242.991 425.497 233.788C424.82 230.816 424.21 227.789 423.682 224.804C419.565 202.083 418.725 177.857 418.712 177.626C418.698 177.341 418.928 177.11 419.199 177.097C419.538 177.11 419.714 177.314 419.727 177.585C419.741 177.829 420.567 201.975 424.671 224.627C425.199 227.599 425.808 230.599 426.486 233.558C428.571 242.665 431.036 249.899 433.772 255.043C433.907 255.287 433.813 255.599 433.569 255.735C433.501 255.776 433.42 255.789 433.339 255.789Z" fill="#1A1A1A"/>
<path d="M509.995 438.786C509.995 438.786 530.026 397.973 526.83 381.117L541.281 388.69C541.281 388.69 538.071 424.358 524.514 442.925L509.995 438.786Z" fill="#1A1A1A"/>
<path d="M373.72 457.04C373.625 457.04 373.517 457.013 373.436 456.945L364.985 451.082C364.754 450.919 364.7 450.607 364.863 450.376C365.025 450.146 365.337 450.091 365.567 450.254L374.018 456.118C374.248 456.28 374.303 456.593 374.14 456.823C374.045 456.959 373.883 457.04 373.72 457.04Z" fill="#1A1A1A"/>
<path d="M364.267 463.827C362.086 463.827 360.095 463.8 359.052 463.718C358.768 463.691 358.565 463.447 358.592 463.175C358.619 462.89 358.863 462.687 359.134 462.714C362.127 462.958 373.598 462.714 373.706 462.714C373.991 462.741 374.221 462.931 374.221 463.216C374.221 463.501 374.004 463.732 373.72 463.732C373.422 463.718 368.479 463.827 364.267 463.827Z" fill="#1A1A1A"/>
<path d="M399.399 468.102C399.344 468.102 399.277 468.088 399.222 468.075C397.055 467.288 386.099 463.718 385.99 463.691C385.72 463.609 385.584 463.311 385.665 463.053C385.747 462.782 386.031 462.632 386.302 462.727C386.749 462.877 397.394 466.324 399.561 467.125C399.818 467.22 399.954 467.518 399.859 467.776C399.805 467.98 399.602 468.102 399.399 468.102Z" fill="#1A1A1A"/>
<path d="M359.093 488.786C358.849 488.786 358.619 488.596 358.592 488.352C358.551 488.067 358.755 487.823 359.025 487.782C369.495 486.33 396.839 486.072 397.123 486.072C397.408 486.072 397.624 486.303 397.638 486.574C397.638 486.859 397.408 487.09 397.137 487.09C396.866 487.09 369.589 487.348 359.174 488.8C359.134 488.786 359.12 488.786 359.093 488.786Z" fill="#1A1A1A"/>
<path d="M356.168 504.272C355.883 504.272 355.653 504.041 355.653 503.756C355.653 503.471 355.883 503.241 356.168 503.241C363.224 503.241 380.844 500.201 387.48 499.047C389.796 498.653 390.094 498.599 390.216 498.599C390.501 498.599 390.731 498.83 390.731 499.115C390.731 499.386 390.514 499.617 390.243 499.631C390.081 499.644 389.011 499.834 387.656 500.065C380.993 501.205 363.319 504.272 356.168 504.272Z" fill="#1A1A1A"/>
<path d="M440.3 411.79C436.047 411.79 433.122 411.763 433.041 411.75C432.756 411.75 432.54 411.519 432.54 411.234C432.54 410.949 432.77 410.732 433.054 410.732C433.325 410.732 460.277 411.044 470.529 409.754C470.841 409.714 471.057 409.917 471.098 410.202C471.139 410.487 470.936 410.732 470.651 410.772C463.69 411.641 449.13 411.79 440.3 411.79Z" fill="#1A1A1A"/>
<path d="M453.79 425.512C450.458 425.512 448.128 425.471 448.061 425.471C447.776 425.471 447.56 425.24 447.56 424.955C447.56 424.67 447.803 424.426 448.074 424.453C448.25 424.453 465.762 424.725 473.766 423.761C474.051 423.72 474.294 423.924 474.335 424.209C474.376 424.494 474.173 424.738 473.888 424.779C468.742 425.403 459.695 425.512 453.79 425.512Z" fill="#1A1A1A"/>
<path d="M526.829 434.85C536.09 434.85 543.596 427.327 543.596 418.047C543.596 408.767 536.09 401.244 526.829 401.244C517.569 401.244 510.063 408.767 510.063 418.047C510.063 427.327 517.569 434.85 526.829 434.85Z" fill="#E6E6E6"/>
<path d="M526.829 436.193C516.834 436.193 508.708 428.05 508.708 418.033C508.708 408.017 516.834 399.874 526.829 399.874C536.825 399.874 544.951 408.017 544.951 418.033C544.951 428.05 536.825 436.193 526.829 436.193ZM526.829 402.602C518.338 402.602 511.417 409.524 511.417 418.047C511.417 426.557 518.324 433.492 526.829 433.492C535.321 433.492 542.242 426.57 542.242 418.047C542.242 409.524 535.335 402.602 526.829 402.602Z" fill="#1A1A1A"/>
<path d="M513.909 255.287C513.191 257.906 506.311 281.522 487.933 292.258C482.231 289.842 470.584 286.327 470.584 286.327C465.938 284.712 461.469 282.459 457.257 279.69C464.015 281.387 474.349 282.635 486.348 279.487C506.42 274.234 513.11 257.431 513.909 255.287Z" fill="#1A1A1A"/>
<path d="M417.628 201.757C416.342 201.757 415.123 201.025 414.54 199.789C413.755 198.107 414.473 196.111 416.138 195.311C416.721 195.039 422.26 192.569 439.393 190.601C441.248 190.397 442.928 191.728 443.144 193.587C443.361 195.446 442.02 197.129 440.165 197.346C424.224 199.179 419.064 201.432 419.01 201.459C418.563 201.662 418.089 201.757 417.628 201.757Z" fill="#1A1A1A"/>
<path d="M498.049 199.572C497.738 199.572 497.426 199.532 497.129 199.437C496.966 199.396 481.066 194.917 469.459 194.673C467.59 194.632 466.1 193.085 466.141 191.212C466.182 189.339 467.726 187.859 469.595 187.886C482.082 188.131 498.293 192.705 498.97 192.895C500.772 193.41 501.815 195.283 501.3 197.089C500.88 198.595 499.526 199.572 498.049 199.572Z" fill="#1A1A1A"/>
<path d="M433.339 220.067C437.557 220.067 440.977 216.64 440.977 212.412C440.977 208.184 437.557 204.757 433.339 204.757C429.12 204.757 425.7 208.184 425.7 212.412C425.7 216.64 429.12 220.067 433.339 220.067Z" fill="#1A1A1A"/>
<path d="M478.533 216.28C482.752 216.28 486.172 212.853 486.172 208.625C486.172 204.397 482.752 200.97 478.533 200.97C474.315 200.97 470.895 204.397 470.895 208.625C470.895 212.853 474.315 216.28 478.533 216.28Z" fill="#1A1A1A"/>
<path d="M493.025 232.96C493.025 232.96 492.199 251.229 477.206 258.042C474.24 259.413 470.705 260.309 466.52 260.54C466.52 260.54 467.008 251.378 457.257 244.293C457.257 244.293 468.146 243.845 477.897 241.172C478.493 241.009 479.102 240.832 479.712 240.615C483.937 239.217 488.502 236.842 493.025 232.96Z" fill="#FFD2AA"/>
<path d="M456.484 235.702C456.2 235.702 455.902 235.607 455.658 235.417L450.173 231.155C449.577 230.694 449.469 229.839 449.929 229.255C450.39 228.671 451.243 228.549 451.825 229.011L457.311 233.273C457.907 233.734 458.015 234.589 457.554 235.173C457.284 235.526 456.891 235.702 456.484 235.702Z" fill="#1A1A1A"/>
<path d="M493.025 232.96C493.025 232.96 492.199 251.229 477.206 258.042C476.881 254.16 476.949 247.619 479.712 240.615C483.937 239.217 488.502 236.842 493.025 232.96Z" fill="#FF6855"/>
<path d="M538.572 218.519C537.895 218.519 537.204 218.289 536.567 217.827C533.52 215.642 532.206 209.019 535.024 204.377C536.676 201.662 538.518 200.088 540.468 199.735C542.432 199.382 543.759 200.4 543.813 200.441C544.111 200.672 544.165 201.092 543.935 201.391C543.705 201.69 543.285 201.73 542.987 201.513C542.933 201.472 542.039 200.821 540.685 201.079C539.154 201.377 537.597 202.762 536.175 205.083C533.561 209.385 535.078 215.099 537.353 216.728C538.477 217.529 539.628 217.244 540.766 215.859C541.01 215.574 541.43 215.533 541.714 215.764C541.998 216.008 542.039 216.429 541.809 216.714C540.82 217.909 539.696 218.519 538.572 218.519Z" fill="#1A1A1A"/>
<path d="M343.843 500.676C343.64 500.676 343.45 500.554 343.369 500.364C337.369 485.678 344.642 463.949 344.954 463.04C345.048 462.768 345.333 462.632 345.604 462.727C345.875 462.822 346.01 463.107 345.915 463.379C345.834 463.596 338.439 485.665 344.304 499.997C344.412 500.255 344.29 500.554 344.019 500.662C343.978 500.676 343.911 500.676 343.843 500.676Z" fill="#1A1A1A"/>
<path d="M471.951 469.663C449.483 469.106 407.917 456.335 407.498 456.199C407.322 456.145 407.213 455.955 407.267 455.778C407.321 455.602 407.511 455.507 407.687 455.548C408.107 455.67 449.577 468.414 471.951 468.971C472.141 468.971 472.29 469.134 472.276 469.324C472.29 469.514 472.141 469.663 471.951 469.663Z" fill="#1A1A1A"/>
<path d="M458.76 490.021C458.719 490.021 458.679 490.008 458.638 489.994C430.454 478.648 405.168 469.731 404.911 469.649C404.735 469.581 404.64 469.391 404.708 469.215C404.775 469.039 404.965 468.944 405.141 469.011C405.398 469.106 430.684 478.01 458.895 489.37C459.071 489.438 459.153 489.641 459.085 489.818C459.031 489.94 458.895 490.021 458.76 490.021Z" fill="#1A1A1A"/>
<path d="M541.958 529.829C540.739 529.829 539.615 529.436 538.585 528.635C532.856 524.197 532.342 508.67 532.315 508.005C532.301 507.72 532.531 507.489 532.802 507.476C533.073 507.476 533.317 507.693 533.33 507.964C533.33 508.127 533.845 523.681 539.195 527.821C540.359 528.73 541.633 529.001 543.109 528.662C543.393 528.594 543.651 528.771 543.718 529.042C543.786 529.314 543.61 529.585 543.339 529.653C542.865 529.775 542.405 529.829 541.958 529.829Z" fill="#1A1A1A"/>
<path d="M374.018 514.221C367.653 514.221 361.612 512.674 361.274 512.592C361.003 512.524 360.84 512.239 360.908 511.968C360.976 511.697 361.247 511.534 361.531 511.602C361.639 511.629 373.165 514.574 380.979 512.375C388.74 510.19 391.516 506.023 389.729 499.251C389.688 499.088 389.729 498.911 389.837 498.789C389.945 498.667 390.108 498.599 390.284 498.613C390.365 498.626 392.234 498.803 393.941 497.201C395.945 495.315 396.879 491.65 396.636 486.601C396.622 486.37 396.771 486.153 397.001 486.085C397.11 486.058 399.683 485.217 400.211 481.62C401.322 474.033 398.979 467.844 398.952 467.79C398.857 467.546 398.965 467.274 399.195 467.152C399.439 467.03 405.127 464.044 404.504 458.004C403.868 451.937 390.473 448.042 390.338 448.001C390.067 447.92 389.918 447.648 389.986 447.377C390.067 447.106 390.352 446.956 390.609 447.024C391.191 447.187 404.802 451.164 405.507 457.896C406.116 463.664 401.444 466.975 400.035 467.831C400.55 469.364 402.202 474.956 401.213 481.769C400.712 485.217 398.559 486.52 397.665 486.927C397.868 492.179 396.839 495.898 394.618 497.975C393.236 499.264 391.733 499.576 390.88 499.631C392.464 506.593 389.322 511.086 381.264 513.366C379.002 513.99 376.483 514.221 374.018 514.221Z" fill="#1A1A1A"/>
<path d="M537.705 533.508C529.417 533.508 520.681 529.653 511.675 525.676C506.975 523.6 502.099 521.442 497.169 519.786C487.012 516.366 481.147 513.76 475.473 511.235C468.687 508.209 461.672 505.087 447.194 500.594C420.987 492.451 402.906 485.23 402.73 485.149C402.473 485.04 402.338 484.755 402.446 484.484C402.554 484.213 402.852 484.09 403.11 484.199C403.286 484.267 421.339 491.487 447.505 499.604C462.038 504.123 469.094 507.258 475.906 510.285C481.554 512.796 487.391 515.402 497.508 518.809C502.478 520.478 507.368 522.636 512.094 524.726C528.943 532.164 543.502 538.597 556.585 522.663C553.863 521.374 542.5 515.768 535.091 508.344C534.888 508.141 534.888 507.829 535.091 507.625C535.294 507.435 535.606 507.421 535.809 507.625C544.098 515.931 557.465 521.957 557.601 522.012C557.75 522.08 557.844 522.202 557.885 522.351C557.926 522.5 557.885 522.663 557.79 522.785C551.479 530.712 544.761 533.508 537.705 533.508Z" fill="#1A1A1A"/>
<path d="M544.815 221.003C544.666 221.003 544.504 220.935 544.409 220.8C544.247 220.569 544.287 220.257 544.504 220.094C544.558 220.053 547.876 217.284 547.849 205.544C547.849 205.259 548.079 205.028 548.364 205.028C548.648 205.028 548.878 205.259 548.878 205.544C548.892 217.949 545.276 220.786 545.127 220.908C545.019 220.976 544.924 221.003 544.815 221.003Z" fill="#1A1A1A"/>
<path d="M466.52 261.042C466.385 261.042 466.249 260.987 466.155 260.879C466.06 260.77 466.006 260.635 466.019 260.499C466.019 260.39 466.52 249.709 457.026 244.728C456.81 244.619 456.715 244.375 456.769 244.144C456.837 243.913 457.04 243.778 457.284 243.764C457.514 243.778 481.12 244.551 492.673 232.58C492.822 232.431 493.038 232.377 493.242 232.472C493.431 232.553 493.553 232.757 493.553 232.96C493.513 233.259 491.901 260.662 466.52 261.042ZM459.126 244.809C466.385 249.641 467.008 257.825 467.035 260.024C487.77 259.386 491.698 239.719 492.388 234.304C482.271 243.655 464.854 244.728 459.126 244.809Z" fill="#1A1A1A"/>
<path d="M477.071 254.988C476.813 254.988 476.583 254.785 476.57 254.527C475.987 247.876 479.116 241.022 479.251 240.724C479.373 240.466 479.671 240.357 479.928 240.48C480.186 240.602 480.294 240.9 480.172 241.158C480.145 241.226 477.017 248.053 477.585 254.432C477.612 254.717 477.409 254.961 477.125 254.988C477.098 254.988 477.084 254.988 477.071 254.988Z" fill="#1A1A1A"/>
<path d="M496.926 226.283C500.351 226.283 503.129 223.5 503.129 220.067C503.129 216.634 500.351 213.85 496.926 213.85C493.5 213.85 490.723 216.634 490.723 220.067C490.723 223.5 493.5 226.283 496.926 226.283Z" fill="#ED1C24"/>
<path d="M448.318 115.057C448.223 115.057 448.128 115.03 448.047 114.976C447.817 114.826 447.749 114.514 447.898 114.27C457.744 98.9467 484.926 106.927 485.197 107.009C485.468 107.09 485.617 107.375 485.536 107.647C485.454 107.918 485.17 108.067 484.899 107.986C484.628 107.904 458.178 100.141 448.738 114.826C448.643 114.976 448.48 115.057 448.318 115.057Z" fill="#1A1A1A"/>
<path d="M408.5 138.619C408.351 138.619 408.216 138.551 408.107 138.429C408.026 138.334 400.672 129.172 405.737 114.365C405.832 114.093 406.103 113.958 406.387 114.053C406.658 114.148 406.794 114.433 406.699 114.704C401.81 128.969 408.811 137.696 408.879 137.791C409.055 138.008 409.028 138.334 408.811 138.51C408.73 138.592 408.608 138.619 408.5 138.619Z" fill="#1A1A1A"/>
<path d="M543.881 139.406C543.84 139.406 543.8 139.406 543.759 139.392C543.488 139.324 543.326 139.053 543.393 138.782C543.448 138.578 548.432 117.853 537.949 109.126C537.732 108.949 537.705 108.624 537.881 108.407C538.057 108.189 538.382 108.162 538.599 108.339C549.569 117.473 544.585 138.144 544.368 139.026C544.314 139.243 544.111 139.406 543.881 139.406Z" fill="#1A1A1A"/>
<path d="M561.067 171.898C561 171.898 560.932 171.885 560.864 171.858C560.607 171.749 560.499 171.437 560.607 171.179C560.648 171.084 564.711 161.692 559.266 149.232C553.862 136.882 541.849 137.072 541.727 137.072C541.429 137.058 541.213 136.854 541.199 136.583C541.186 136.311 541.416 136.067 541.687 136.054C541.808 136.04 554.499 135.823 560.187 148.812C565.821 161.692 561.704 171.179 561.528 171.573C561.447 171.776 561.257 171.898 561.067 171.898Z" fill="#1A1A1A"/>
<path d="M208.949 458.411H140.961C140.961 458.411 124.533 392.626 128.054 329.175C128.745 316.824 130.708 304.378 133.471 292.326C134.866 286.191 136.451 280.152 138.184 274.315C150.198 233.449 168.427 201.12 169.091 199.966C169.104 199.952 169.104 199.939 169.104 199.939H180.833C180.833 199.939 180.833 199.952 180.847 199.966C180.86 199.993 180.874 200.02 180.887 200.047C182.065 202.124 199.929 234.087 211.753 274.315C213.486 280.152 215.057 286.191 216.452 292.326C219.202 304.378 221.179 316.811 221.87 329.175C225.351 392.626 208.949 458.411 208.949 458.411Z" fill="#F3F3F3"/>
<path d="M180.508 199.952H169.186L172.165 114.976H178.368L180.508 199.952Z" fill="#1A1A1A"/>
<path d="M211.726 274.329H138.157C150.17 233.463 168.4 201.133 169.064 199.979C169.077 199.966 169.077 199.952 169.077 199.952H180.806C180.806 199.952 180.806 199.966 180.819 199.979C180.833 200.007 180.847 200.034 180.86 200.061C182.052 202.137 199.902 234.1 211.726 274.329Z" fill="#33A6FF"/>
<path d="M208.949 458.411H174.847V199.952H180.806C180.806 199.952 180.806 199.966 180.819 199.979C180.833 200.007 180.847 200.034 180.86 200.061C182.038 202.137 199.902 234.1 211.726 274.329C213.459 280.165 215.03 286.205 216.425 292.34C219.175 304.392 221.152 316.824 221.843 329.189C225.351 392.626 208.949 458.411 208.949 458.411Z" fill="#D9D9D9"/>
<path d="M174.942 464.736H144.32L150.184 482.652H174.942H199.713L205.577 464.736H174.942Z" fill="#1A1A1A"/>
<path d="M131.86 391.744L87.8975 449.318V484.565L140.365 446.671C140.365 446.671 141.611 442.993 141.828 439.329C142.708 424.942 138.875 382.555 131.86 391.744Z" fill="#D8D8D8"/>
<path d="M219.445 391.744L263.408 449.318V484.565L210.94 446.671C210.94 446.671 209.694 442.993 209.477 439.329C208.611 424.942 212.43 382.555 219.445 391.744Z" fill="#C7C7C7"/>
<path d="M211.577 457.57V466.596C211.577 467.749 210.642 468.699 209.491 468.699H140.406C139.241 468.699 138.306 467.749 138.306 466.596V457.57C138.306 456.416 139.241 455.48 140.406 455.48H209.491C210.642 455.48 211.577 456.416 211.577 457.57Z" fill="#33A6FF"/>
<path d="M176.513 484.565H174.847C172.585 484.565 170.743 482.72 170.743 480.453V394.567C170.743 392.3 172.585 390.454 174.847 390.454H176.513C178.774 390.454 180.616 392.3 180.616 394.567V480.453C180.616 482.72 178.774 484.565 176.513 484.565Z" fill="#B3B3B3"/>
<path d="M96.0235 429.434C101.685 434.13 94.2628 501.3 88.7912 506.973C83.3196 512.647 75.6946 481.715 78.2408 458.411C80.2859 439.736 90.2675 424.657 96.0235 429.434Z" fill="#1A1A1A"/>
<path d="M255.282 429.434C249.621 434.13 257.043 501.3 262.514 506.973C267.986 512.647 275.611 481.715 273.065 458.411C271.033 439.736 261.051 424.657 255.282 429.434Z" fill="#1A1A1A"/>
<path d="M174.847 335.758C188.198 335.758 199.022 324.911 199.022 311.531C199.022 298.151 188.198 287.304 174.847 287.304C161.495 287.304 150.672 298.151 150.672 311.531C150.672 324.911 161.495 335.758 174.847 335.758Z" fill="#1A1A1A"/>
<path d="M192.562 311.531C192.562 321.276 184.679 329.189 174.942 329.189C172.572 329.189 170.296 328.727 168.238 327.858C164.689 326.393 161.737 323.814 159.786 320.543C158.229 317.91 157.322 314.829 157.322 311.531C157.322 301.786 165.204 293.873 174.942 293.873C175.903 293.873 176.824 293.941 177.745 294.09C181.145 294.633 184.233 296.167 186.67 298.366C190.286 301.596 192.562 306.306 192.562 311.531Z" fill="#F2F2F2"/>
<path d="M211.726 274.329H174.847V199.952H180.806C180.806 199.952 180.806 199.966 180.819 199.979C180.833 200.007 180.847 200.034 180.86 200.061C182.052 202.137 199.902 234.1 211.726 274.329Z" fill="#3683F7"/>
<path d="M177.745 294.09L159.786 320.557C158.229 317.924 157.322 314.843 157.322 311.545C157.322 301.8 165.204 293.887 174.942 293.887C175.903 293.873 176.838 293.941 177.745 294.09Z" fill="#CCCCCC"/>
<path d="M192.562 311.531C192.562 321.276 184.679 329.189 174.942 329.189C172.571 329.189 170.296 328.727 168.238 327.859C172.07 321.697 182.756 304.528 186.67 298.352C190.286 301.596 192.562 306.306 192.562 311.531Z" fill="#CCCCCC"/>
<path d="M220.719 384.333C220.705 384.333 220.691 384.333 220.678 384.333C220.393 384.32 220.163 384.062 220.19 383.777C220.217 383.315 223.156 337.834 218.85 307.283C214.529 276.745 193.022 225.767 192.805 225.251C192.697 224.98 192.819 224.668 193.09 224.559C193.361 224.45 193.672 224.573 193.78 224.844C193.997 225.36 215.558 276.46 219.892 307.133C224.226 337.794 221.274 383.383 221.247 383.845C221.22 384.13 220.989 384.333 220.719 384.333Z" fill="black"/>
<path d="M100.804 432.936C100.696 432.936 100.574 432.895 100.479 432.827C100.249 432.651 100.208 432.312 100.384 432.081L131.44 391.418C131.616 391.187 131.941 391.147 132.185 391.323C132.415 391.499 132.455 391.839 132.279 392.069L101.224 432.732C101.129 432.868 100.967 432.936 100.804 432.936Z" fill="black"/>
<path d="M250.501 432.936C250.338 432.936 250.189 432.868 250.081 432.732L221.911 395.843C221.735 395.612 221.775 395.286 222.005 395.096C222.236 394.92 222.574 394.96 222.75 395.191L250.921 432.081C251.097 432.312 251.056 432.637 250.826 432.827C250.731 432.895 250.609 432.936 250.501 432.936Z" fill="black"/>
<path d="M100.236 476.178C100.073 476.178 99.9106 476.096 99.8022 475.96C99.6262 475.716 99.6803 475.39 99.9241 475.227L136.749 448.626C136.993 448.463 137.318 448.503 137.48 448.748C137.656 448.992 137.602 449.318 137.358 449.481L100.534 476.082C100.439 476.15 100.33 476.178 100.236 476.178Z" fill="black"/>
<path d="M118.398 333.138C118.154 333.138 117.937 332.975 117.883 332.717C114.348 316.526 122.623 287.44 122.704 287.141C122.786 286.856 123.07 286.707 123.354 286.775C123.639 286.856 123.801 287.141 123.72 287.426C123.639 287.711 115.445 316.553 118.926 332.487C118.993 332.772 118.804 333.057 118.519 333.111C118.479 333.138 118.438 333.138 118.398 333.138Z" fill="black"/>
<path d="M113.589 345.082C113.4 345.082 113.224 344.973 113.129 344.797C105.287 330.084 111.301 299.533 111.558 298.244C111.612 297.959 111.883 297.755 112.181 297.836C112.465 297.891 112.655 298.176 112.587 298.461C112.52 298.773 106.384 329.935 114.05 344.308C114.185 344.566 114.091 344.892 113.833 345.028C113.766 345.068 113.671 345.082 113.589 345.082Z" fill="black"/>
<path d="M224.809 279.066C224.768 279.066 224.728 279.066 224.687 279.066C224.403 279.039 224.186 278.781 224.213 278.482C225.838 263.05 215.071 247.456 214.963 247.293C214.8 247.049 214.854 246.723 215.098 246.56C215.342 246.397 215.667 246.451 215.83 246.682C215.938 246.845 226.935 262.765 225.269 278.591C225.242 278.849 225.053 279.039 224.809 279.066Z" fill="black"/>
<path d="M211.577 457.57V466.596C211.577 467.749 210.642 468.699 209.491 468.699H178.084V455.48H209.491C210.642 455.48 211.577 456.416 211.577 457.57Z" fill="#3683F7"/>
<path d="M175.673 507.666C171.136 507.666 170.648 502.97 170.391 499.346L167.465 436.777C167.465 432.23 171.136 428.552 175.673 428.552C180.21 428.552 183.88 432.23 183.88 436.777L181.05 499.346C180.603 503.757 180.21 507.666 175.673 507.666Z" fill="#1A1A1A"/>
<path d="M207.351 274.858H143.954C143.669 274.858 143.426 274.628 143.426 274.329C143.426 274.044 143.656 273.8 143.954 273.8H207.351C207.636 273.8 207.879 274.03 207.879 274.329C207.879 274.628 207.649 274.858 207.351 274.858Z" fill="white"/>
<path d="M153.583 323.597C153.407 323.597 153.231 323.502 153.137 323.339C153.042 323.19 144.387 308.287 156.956 294.471C169.538 280.64 187.171 290.06 187.347 290.155C187.605 290.29 187.7 290.616 187.564 290.874C187.429 291.132 187.104 291.227 186.846 291.091C186.67 290.996 169.754 281.97 157.741 295.19C145.701 308.423 153.963 322.66 154.057 322.796C154.206 323.04 154.125 323.366 153.881 323.515C153.76 323.57 153.678 323.597 153.583 323.597Z" fill="white"/>
<path d="M175.863 329.732C170.215 329.732 165.624 327.126 165.542 327.085C165.285 326.936 165.204 326.61 165.353 326.366C165.502 326.108 165.827 326.026 166.071 326.176C166.599 326.488 179.208 333.6 187.862 322.755C196.557 311.87 188.797 301.501 188.715 301.406C188.539 301.175 188.58 300.85 188.81 300.66C189.04 300.483 189.365 300.524 189.555 300.755C189.636 300.863 197.884 311.884 188.688 323.42C184.761 328.307 180.034 329.732 175.863 329.732Z" fill="white"/>
<path d="M180.616 427.263C180.332 427.263 180.088 427.032 180.088 426.733V394.73C180.088 394.445 180.318 394.2 180.616 394.2C180.901 394.2 181.145 394.431 181.145 394.73V426.733C181.131 427.018 180.901 427.263 180.616 427.263Z" fill="white"/>
<path d="M95.8067 475.323C95.7796 475.323 95.739 475.323 95.7119 475.309C95.4275 475.255 95.2379 474.983 95.2921 474.685C97.3507 463.962 97.5132 441.772 97.5132 441.554C97.5132 441.269 97.757 441.025 98.0414 441.025C98.3258 441.025 98.5696 441.269 98.5696 441.554C98.5696 441.785 98.4071 464.057 96.3214 474.888C96.2808 475.146 96.0641 475.323 95.8067 475.323Z" fill="white"/>
<path d="M255.539 475.676C255.295 475.676 255.079 475.499 255.025 475.255C251.855 460.244 252.79 439.424 252.79 439.22C252.803 438.921 253.088 438.718 253.345 438.718C253.63 438.731 253.86 438.976 253.846 439.274C253.833 439.478 252.912 460.162 256.054 475.051C256.108 475.336 255.932 475.621 255.648 475.676C255.607 475.662 255.58 475.676 255.539 475.676Z" fill="white"/>
<path d="M103.472 436.383C103.351 436.383 103.229 436.343 103.134 436.261C102.917 436.071 102.877 435.745 103.066 435.515L130.397 402.792C130.587 402.561 130.912 402.534 131.142 402.724C131.359 402.914 131.399 403.24 131.21 403.47L103.879 436.193C103.77 436.329 103.621 436.383 103.472 436.383Z" fill="white"/>
<path d="M248.226 438.039C248.077 438.039 247.941 437.985 247.833 437.863L219.486 405.778C219.297 405.561 219.31 405.221 219.527 405.031C219.744 404.841 220.082 404.855 220.272 405.072L248.618 437.157C248.808 437.374 248.794 437.713 248.578 437.903C248.483 437.985 248.348 438.039 248.226 438.039Z" fill="white"/>
<path d="M265.941 490.415C265.873 490.415 265.805 490.401 265.751 490.374C265.48 490.266 265.345 489.967 265.453 489.696C271.886 473.327 263.002 446.196 262.907 445.925C262.812 445.653 262.961 445.355 263.245 445.26C263.53 445.165 263.814 445.314 263.909 445.599C264.288 446.726 273.01 473.368 266.428 490.089C266.36 490.279 266.157 490.415 265.941 490.415Z" fill="white"/>
<path d="M83.0488 476.965C82.7779 476.965 82.5477 476.761 82.5206 476.49C81.1798 462.022 86.1909 442.355 86.2451 442.152C86.3128 441.867 86.6108 441.704 86.8816 441.772C87.166 441.84 87.3286 442.138 87.2608 442.41C87.2067 442.6 82.2362 462.103 83.5635 476.381C83.5906 476.666 83.3739 476.924 83.0894 476.951C83.0894 476.965 83.0624 476.965 83.0488 476.965Z" fill="white"/>
<path d="M153.326 260.879C153.285 260.879 153.231 260.879 153.191 260.865C152.906 260.797 152.744 260.499 152.811 260.227C156.82 244.646 167.642 217.569 167.75 217.298C167.858 217.026 168.17 216.891 168.441 216.999C168.712 217.108 168.847 217.42 168.739 217.692C168.63 217.963 157.836 244.972 153.841 260.485C153.773 260.716 153.556 260.879 153.326 260.879Z" fill="white"/>
<path d="M138.306 367.395C138.035 367.395 137.805 367.191 137.778 366.906C135.354 338.079 143.358 298.637 143.439 298.23C143.494 297.945 143.778 297.755 144.062 297.823C144.347 297.877 144.536 298.162 144.469 298.447C144.387 298.841 136.41 338.146 138.821 366.811C138.848 367.096 138.631 367.354 138.347 367.381C138.333 367.395 138.32 367.395 138.306 367.395Z" fill="white"/>
<path d="M162.184 423.707C161.899 423.707 161.656 423.476 161.656 423.177V391.975C161.656 391.69 161.886 391.445 162.184 391.445C162.482 391.445 162.712 391.676 162.712 391.975V423.177C162.712 423.476 162.468 423.707 162.184 423.707Z" fill="white"/>
<path d="M166.734 469.229H149.52C149.236 469.229 148.992 468.998 148.992 468.699C148.992 468.401 149.222 468.17 149.52 468.17H166.734C167.019 468.17 167.262 468.401 167.262 468.699C167.262 468.998 167.032 469.229 166.734 469.229Z" fill="white"/>
<path d="M200.146 469.229H187.117C186.833 469.229 186.589 468.998 186.589 468.699C186.589 468.401 186.819 468.17 187.117 468.17H200.146C200.43 468.17 200.674 468.401 200.674 468.699C200.674 468.998 200.43 469.229 200.146 469.229Z" fill="white"/>
<path d="M141.882 438.677C141.868 438.677 141.841 438.677 141.828 438.677C141.543 438.65 141.326 438.379 141.367 438.093C143.426 419.798 138.889 404.149 138.834 404C138.753 403.715 138.916 403.43 139.187 403.348C139.471 403.267 139.755 403.43 139.837 403.701C139.877 403.864 144.496 419.703 142.396 438.216C142.369 438.487 142.153 438.677 141.882 438.677Z" fill="black"/>
<path d="M173.994 183.951C173.709 183.951 173.465 183.72 173.465 183.421V138.782C173.465 138.497 173.696 138.252 173.994 138.252C174.278 138.252 174.522 138.483 174.522 138.782V183.421C174.522 183.706 174.278 183.951 173.994 183.951Z" fill="white"/>
<path d="M174.847 375.185C174.847 375.185 174.833 375.185 174.847 375.185C174.549 375.185 174.319 374.941 174.319 374.642C174.657 356.266 174.738 342.652 174.738 342.53C174.738 342.245 174.982 342.001 175.267 342.001C175.551 342.001 175.795 342.245 175.795 342.53C175.795 342.666 175.727 356.265 175.375 374.656C175.361 374.955 175.131 375.185 174.847 375.185Z" fill="white"/>
<path d="M178.382 322.511C178.26 322.511 178.124 322.47 178.03 322.375C177.813 322.185 177.799 321.846 178.002 321.629C181.944 317.299 185.465 309.427 185.506 309.346C185.627 309.074 185.939 308.966 186.196 309.074C186.467 309.197 186.575 309.509 186.467 309.767C186.318 310.092 182.837 317.883 178.788 322.335C178.666 322.457 178.517 322.511 178.382 322.511Z" fill="white"/>
<path d="M182.025 478.241C182.011 478.241 182.011 478.241 181.998 478.241C181.713 478.227 181.483 477.983 181.497 477.684L183.068 442.939C183.081 442.654 183.339 442.437 183.623 442.437C183.907 442.45 184.138 442.695 184.124 442.993L182.553 477.738C182.54 478.024 182.309 478.241 182.025 478.241Z" fill="white"/>
<path d="M175.673 495.993C175.389 495.993 175.145 495.763 175.145 495.478L174.319 435.881C174.319 435.596 174.549 435.352 174.833 435.352C175.158 435.393 175.361 435.583 175.361 435.868L176.188 495.464C176.201 495.749 175.971 495.98 175.673 495.993C175.687 495.993 175.673 495.993 175.673 495.993Z" fill="white"/>
<path d="M124.817 490.415C128.041 490.415 130.654 487.796 130.654 484.565C130.654 481.335 128.041 478.716 124.817 478.716C121.593 478.716 118.98 481.335 118.98 484.565C118.98 487.796 121.593 490.415 124.817 490.415Z" fill="#B3B3B3"/>
<path d="M150.672 446.888C153.896 446.888 156.509 444.269 156.509 441.039C156.509 437.808 153.896 435.189 150.672 435.189C147.448 435.189 144.834 437.808 144.834 441.039C144.834 444.269 147.448 446.888 150.672 446.888Z" fill="#B3B3B3"/>
<path d="M218.443 455.48C220.298 455.48 221.802 453.973 221.802 452.114C221.802 450.255 220.298 448.748 218.443 448.748C216.588 448.748 215.085 450.255 215.085 452.114C215.085 453.973 216.588 455.48 218.443 455.48Z" fill="#999999"/>
<path d="M145.905 500.282C147.086 500.282 148.044 499.322 148.044 498.138C148.044 496.953 147.086 495.993 145.905 495.993C144.723 495.993 143.765 496.953 143.765 498.138C143.765 499.322 144.723 500.282 145.905 500.282Z" fill="#999999"/>
<path d="M206.485 498.138C208.863 498.138 210.791 496.205 210.791 493.822C210.791 491.438 208.863 489.506 206.485 489.506C204.106 489.506 202.178 491.438 202.178 493.822C202.178 496.205 204.106 498.138 206.485 498.138Z" fill="#CCCCCC"/>
<path d="M222.33 477.494C225.809 477.494 228.628 474.668 228.628 471.183C228.628 467.697 225.809 464.872 222.33 464.872C218.852 464.872 216.033 467.697 216.033 471.183C216.033 474.668 218.852 477.494 222.33 477.494Z" fill="#E6E6E6"/>
<path d="M248.754 410.704C252.232 410.704 255.052 407.879 255.052 404.393C255.052 400.908 252.232 398.082 248.754 398.082C245.276 398.082 242.456 400.908 242.456 404.393C242.456 407.879 245.276 410.704 248.754 410.704Z" fill="#CCCCCC"/>
</svg>
