<svg width="135" height="32" viewBox="0 0 135 32" fill="none" xmlns="http://www.w3.org/2000/svg">
<path d="M58.328 16.264C59.288 16.568 60.04 17.08 60.584 17.8C61.128 18.504 61.4 19.376 61.4 20.416C61.4 21.888 60.824 23.024 59.672 23.824C58.536 24.608 56.872 25 54.68 25H45.992V8.2H54.2C56.248 8.2 57.816 8.592 58.904 9.376C60.008 10.16 60.56 11.224 60.56 12.568C60.56 13.384 60.36 14.112 59.96 14.752C59.576 15.392 59.032 15.896 58.328 16.264ZM49.856 11.128V15.088H53.72C54.68 15.088 55.408 14.92 55.904 14.584C56.4 14.248 56.648 13.752 56.648 13.096C56.648 12.44 56.4 11.952 55.904 11.632C55.408 11.296 54.68 11.128 53.72 11.128H49.856ZM54.392 22.072C55.416 22.072 56.184 21.904 56.696 21.568C57.224 21.232 57.488 20.712 57.488 20.008C57.488 18.616 56.456 17.92 54.392 17.92H49.856V22.072H54.392ZM70.5836 25.192C69.2236 25.192 67.9996 24.912 66.9116 24.352C65.8396 23.776 64.9996 22.984 64.3916 21.976C63.7836 20.968 63.4796 19.824 63.4796 18.544C63.4796 17.264 63.7836 16.12 64.3916 15.112C64.9996 14.104 65.8396 13.32 66.9116 12.76C67.9996 12.184 69.2236 11.896 70.5836 11.896C71.9436 11.896 73.1596 12.184 74.2316 12.76C75.3036 13.32 76.1436 14.104 76.7516 15.112C77.3596 16.12 77.6636 17.264 77.6636 18.544C77.6636 19.824 77.3596 20.968 76.7516 21.976C76.1436 22.984 75.3036 23.776 74.2316 24.352C73.1596 24.912 71.9436 25.192 70.5836 25.192ZM70.5836 22.12C71.5436 22.12 72.3276 21.8 72.9356 21.16C73.5596 20.504 73.8716 19.632 73.8716 18.544C73.8716 17.456 73.5596 16.592 72.9356 15.952C72.3276 15.296 71.5436 14.968 70.5836 14.968C69.6236 14.968 68.8316 15.296 68.2076 15.952C67.5836 16.592 67.2716 17.456 67.2716 18.544C67.2716 19.632 67.5836 20.504 68.2076 21.16C68.8316 21.8 69.6236 22.12 70.5836 22.12ZM86.6701 25.192C85.3101 25.192 84.0861 24.912 82.9981 24.352C81.9261 23.776 81.0861 22.984 80.4781 21.976C79.8701 20.968 79.5661 19.824 79.5661 18.544C79.5661 17.264 79.8701 16.12 80.4781 15.112C81.0861 14.104 81.9261 13.32 82.9981 12.76C84.0861 12.184 85.3101 11.896 86.6701 11.896C88.0301 11.896 89.2461 12.184 90.3181 12.76C91.3901 13.32 92.2301 14.104 92.8381 15.112C93.4461 16.12 93.7501 17.264 93.7501 18.544C93.7501 19.824 93.4461 20.968 92.8381 21.976C92.2301 22.984 91.3901 23.776 90.3181 24.352C89.2461 24.912 88.0301 25.192 86.6701 25.192ZM86.6701 22.12C87.6301 22.12 88.4141 21.8 89.0221 21.16C89.6461 20.504 89.9581 19.632 89.9581 18.544C89.9581 17.456 89.6461 16.592 89.0221 15.952C88.4141 15.296 87.6301 14.968 86.6701 14.968C85.7101 14.968 84.9181 15.296 84.2941 15.952C83.6701 16.592 83.3581 17.456 83.3581 18.544C83.3581 19.632 83.6701 20.504 84.2941 21.16C84.9181 21.8 85.7101 22.12 86.6701 22.12ZM102.757 25.192C101.397 25.192 100.173 24.912 99.0847 24.352C98.0127 23.776 97.1727 22.984 96.5647 21.976C95.9567 20.968 95.6527 19.824 95.6527 18.544C95.6527 17.264 95.9567 16.12 96.5647 15.112C97.1727 14.104 98.0127 13.32 99.0847 12.76C100.173 12.184 101.397 11.896 102.757 11.896C104.117 11.896 105.333 12.184 106.405 12.76C107.477 13.32 108.317 14.104 108.925 15.112C109.533 16.12 109.837 17.264 109.837 18.544C109.837 19.824 109.533 20.968 108.925 21.976C108.317 22.984 107.477 23.776 106.405 24.352C105.333 24.912 104.117 25.192 102.757 25.192ZM102.757 22.12C103.717 22.12 104.501 21.8 105.109 21.16C105.733 20.504 106.045 19.632 106.045 18.544C106.045 17.456 105.733 16.592 105.109 15.952C104.501 15.296 103.717 14.968 102.757 14.968C101.797 14.968 101.005 15.296 100.381 15.952C99.7567 16.592 99.4447 17.456 99.4447 18.544C99.4447 19.632 99.7567 20.504 100.381 21.16C101.005 21.8 101.797 22.12 102.757 22.12ZM117.043 25.192C115.971 25.192 114.923 25.064 113.899 24.808C112.875 24.536 112.059 24.2 111.451 23.8L112.699 21.112C113.275 21.48 113.971 21.784 114.787 22.024C115.603 22.248 116.403 22.36 117.187 22.36C118.771 22.36 119.563 21.968 119.563 21.184C119.563 20.816 119.347 20.552 118.915 20.392C118.483 20.232 117.819 20.096 116.923 19.984C115.867 19.824 114.995 19.64 114.307 19.432C113.619 19.224 113.019 18.856 112.507 18.328C112.011 17.8 111.763 17.048 111.763 16.072C111.763 15.256 111.995 14.536 112.459 13.912C112.939 13.272 113.627 12.776 114.523 12.424C115.435 12.072 116.507 11.896 117.739 11.896C118.651 11.896 119.555 12 120.451 12.208C121.363 12.4 122.115 12.672 122.707 13.024L121.459 15.688C120.323 15.048 119.083 14.728 117.739 14.728C116.939 14.728 116.339 14.84 115.939 15.064C115.539 15.288 115.339 15.576 115.339 15.928C115.339 16.328 115.555 16.608 115.987 16.768C116.419 16.928 117.107 17.08 118.051 17.224C119.107 17.4 119.971 17.592 120.643 17.8C121.315 17.992 121.899 18.352 122.395 18.88C122.891 19.408 123.139 20.144 123.139 21.088C123.139 21.888 122.899 22.6 122.419 23.224C121.939 23.848 121.235 24.336 120.307 24.688C119.395 25.024 118.307 25.192 117.043 25.192ZM134.137 24.376C133.769 24.648 133.313 24.856 132.769 25C132.241 25.128 131.681 25.192 131.089 25.192C129.553 25.192 128.361 24.8 127.513 24.016C126.681 23.232 126.265 22.08 126.265 20.56V15.256H124.273V12.376H126.265V9.232H130.009V12.376H133.225V15.256H130.009V20.512C130.009 21.056 130.145 21.48 130.417 21.784C130.705 22.072 131.105 22.216 131.617 22.216C132.209 22.216 132.713 22.056 133.129 21.736L134.137 24.376Z" fill="white"/>
<path d="M4.68629 4.68629C6.92393 2.44865 9.77486 0.924796 12.8786 0.307434C15.9823 -0.309929 19.1993 0.00692636 22.1229 1.21793C25.0466 2.42894 27.5454 4.4797 29.3035 7.11089C31.0616 9.74208 32 12.8355 32 16C32 19.1645 31.0616 22.258 29.3035 24.8891C27.5454 27.5203 25.0465 29.5711 22.1229 30.7821C19.1993 31.9931 15.9822 32.3099 12.8785 31.6926C9.77482 31.0752 6.92389 29.5513 4.68626 27.3137L11.6144 20.3855C12.4818 21.2529 13.5869 21.8436 14.79 22.0829C15.9931 22.3223 17.2401 22.1994 18.3734 21.73C19.5067 21.2606 20.4754 20.4657 21.1569 19.4457C21.8384 18.4258 22.2021 17.2267 22.2021 16C22.2021 14.7733 21.8384 13.5742 21.1569 12.5543C20.4754 11.5344 19.5067 10.7394 18.3735 10.27C17.2402 9.80056 15.9931 9.67774 14.79 9.91705C13.5869 10.1564 12.4818 10.7471 11.6144 11.6144L4.68629 4.68629Z" fill="#FFDF99"/>
</svg>
